<svg xmlns="http://www.w3.org/2000/svg" xmlns:xlink="http://www.w3.org/1999/xlink" viewBox="0 0 404.657 98.808"><defs><style>.a{fill:none;}.b{clip-path:url(#a);}.c,.d,.e{fill:#fff;}.c{opacity:0.67;}.e{opacity:0.7;}</style><clipPath id="a" transform="translate(0 0)"><rect class="a" width="404.64" height="98.808"></rect></clipPath></defs><g class="b"><path class="c" d="M75.473,25.087l0,.008c1.2-7.678,0-12.908-4.167-17.643C66.721,2.233,58.454,0,47.875,0H17.163a4.391,4.391,0,0,0-4.338,3.71L.033,84.8a2.638,2.638,0,0,0,2.193,3.018,2.821,2.821,0,0,0,.41.033H21.608L20.3,96.139a2.3,2.3,0,0,0,2.275,2.649H38.556a3.847,3.847,0,0,0,3.8-3.242l.158-.812L45.521,75.64l.193-1.048a3.844,3.844,0,0,1,3.8-3.248c16.272.57,29.893-5.245,33.537-24.478C84.911,37.172,83.265,29.26,75.473,25.087ZM69.881,23.07c-.07-.017-.139-.037-.209-.053C69.742,23.033,69.811,23.053,69.881,23.07Z" transform="translate(0 0)"></path><path class="d" d="M151.3,22.1H128.91a3.11,3.11,0,0,0-3.074,2.62l-9.057,57.425a1.868,1.868,0,0,0,1.556,2.132,1.766,1.766,0,0,0,.291.022h10.7a3.11,3.11,0,0,0,3.075-2.619l2.442-15.487a3.115,3.115,0,0,1,3.071-2.619h7.089c14.75,0,23.263-7.138,25.486-21.282a17.25,17.25,0,0,0-2.855-14.475c-3.183-3.739-8.84-5.717-16.322-5.717m2.57,20.971c-1.224,8.035-7.363,8.035-13.3,8.035h-3.379l2.37-15.005a1.869,1.869,0,0,1,1.844-1.575h1.548c4.044,0,7.858,0,9.823,2.292a7.453,7.453,0,0,1,1.093,6.253m64.354-.258H207.513a1.869,1.869,0,0,0-1.844,1.574l-.474,3-.75-1.087c-2.321-3.37-7.5-4.5-12.661-4.5a24.655,24.655,0,0,0-23.941,21.56,20.245,20.245,0,0,0,3.991,16.476,16.794,16.794,0,0,0,13.506,5.455,20.516,20.516,0,0,0,14.842-6.139l-.478,2.979a1.869,1.869,0,0,0,1.549,2.138,2.181,2.181,0,0,0,.291.023H211.2a3.118,3.118,0,0,0,3.078-2.619l5.791-36.7a1.859,1.859,0,0,0-1.541-2.131h0a1.766,1.766,0,0,0-.291-.023m-14.95,20.87a11.95,11.95,0,0,1-12.1,10.238A8.307,8.307,0,0,1,182.308,63.5a12,12,0,0,1,12.017-10.317,9.044,9.044,0,0,1,7.15,2.921,9.278,9.278,0,0,1,1.814,7.586M275.357,42.81H264.568a3.12,3.12,0,0,0-2.576,1.365L247.13,66.066l-6.3-21.037a3.114,3.114,0,0,0-2.986-2.219H227.256a1.859,1.859,0,0,0-1.87,1.849v.01a1.855,1.855,0,0,0,.1.609l11.868,34.831L226.2,95.861a1.867,1.867,0,0,0,1.523,2.947H238.48a3.092,3.092,0,0,0,2.557-1.34l35.842-51.731a1.869,1.869,0,0,0-1.535-2.947" transform="translate(0 0)"></path><path class="d" d="M311.019,22.1h-22.4a3.111,3.111,0,0,0-3.071,2.62L276.5,82.142a1.863,1.863,0,0,0,1.549,2.132h0a1.766,1.766,0,0,0,.291.022h11.492a2.179,2.179,0,0,0,2.148-1.84l2.57-16.275a3.112,3.112,0,0,1,3.072-2.62h7.088c14.75,0,23.247-7.137,25.486-21.282a17.235,17.235,0,0,0-2.858-14.455c-3.192-3.749-8.821-5.727-16.315-5.727M313.6,43.068c-1.221,8.035-7.36,8.035-13.3,8.035H296.93L299.3,36.1a1.855,1.855,0,0,1,1.84-1.575h1.548c4.041,0,7.858,0,9.823,2.292a7.462,7.462,0,0,1,1.084,6.24m64.347-.258H367.226a1.859,1.859,0,0,0-1.84,1.574l-.475,3-.753-1.088c-2.321-3.369-7.494-4.5-12.661-4.5A24.657,24.657,0,0,0,327.56,63.352a20.248,20.248,0,0,0,3.991,16.472,16.791,16.791,0,0,0,13.506,5.455A20.521,20.521,0,0,0,359.9,79.14l-.478,2.979a1.869,1.869,0,0,0,1.548,2.138,2.3,2.3,0,0,0,.3.023h9.656a3.11,3.11,0,0,0,3.071-2.619l5.808-36.7a1.868,1.868,0,0,0-1.562-2.131,1.63,1.63,0,0,0-.288-.023M363.006,63.679a11.948,11.948,0,0,1-12.1,10.238,9.04,9.04,0,0,1-7.2-2.891,9.132,9.132,0,0,1-1.683-7.53,12.006,12.006,0,0,1,12.016-10.32,9.056,9.056,0,0,1,7.154,2.92A9.247,9.247,0,0,1,363,63.682m27.6-40.01-9.191,58.47a1.864,1.864,0,0,0,1.549,2.132h0a1.774,1.774,0,0,0,.291.022h9.24a3.108,3.108,0,0,0,3.075-2.619l9.062-57.415a1.866,1.866,0,0,0-1.548-2.135,2.2,2.2,0,0,0-.292-.023H392.447a1.87,1.87,0,0,0-1.84,1.578" transform="translate(0 0)"></path><path class="d" d="M31.478,25.211a3.827,3.827,0,0,1,3.794-3.245H59.344a50.046,50.046,0,0,1,7.943.58A31.9,31.9,0,0,1,72.136,23.7a21.821,21.821,0,0,1,3.33,1.4c1.205-7.684,0-12.916-4.165-17.654C66.721,2.233,58.454,0,47.875,0H17.163a4.391,4.391,0,0,0-4.338,3.71L.033,84.8a2.638,2.638,0,0,0,2.193,3.018,2.821,2.821,0,0,0,.41.033H21.609l4.748-30.21Z" transform="translate(0 0)"></path><path class="e" d="M71.226,23.413a32.53,32.53,0,0,0-3.929-.874,50.4,50.4,0,0,0-7.943-.579H35.272a3.839,3.839,0,0,0-3.794,3.251L26.357,57.645l-.147.943a4.374,4.374,0,0,1,4.325-3.707h9.01c17.7,0,31.553-7.2,35.6-27.977.122-.616.223-1.215.328-1.8a21.926,21.926,0,0,0-3.33-1.405c-.3-.1-.6-.193-.907-.284" transform="translate(0 0)"></path></g></svg>