<svg xmlns="http://www.w3.org/2000/svg" xmlns:xlink="http://www.w3.org/1999/xlink" viewBox="0 0 632.103 296.532"><defs><style>.a{fill:none;}.b{fill:#fff;}.c{clip-path:url(#a);}.d{fill:url(#b);}.e{clip-path:url(#c);}.f{fill:url(#d);}.g{clip-path:url(#e);}.h{fill:url(#f);}.i{clip-path:url(#g);}.j{fill:url(#h);}</style><clipPath id="a" transform="translate(54.483 59.826)"><path class="a" d="M119.817,50.1a68.73,68.73,0,0,1,8.481,96.828l-.013.016c-19.463,23.192-51.509,30.935-78.228,20.5a87.744,87.744,0,0,0,37.7,8.569h.354a88,88,0,0,0,56.452-155.4Z"></path></clipPath><linearGradient id="b" x1="-695.913" y1="199.606" x2="-694.913" y2="199.606" gradientTransform="matrix(-26.382, -80.01, -64.845, 32.552, -5234.603, -61992.111)" gradientUnits="userSpaceOnUse"><stop offset="0" stop-color="#e63312"></stop><stop offset="1" stop-color="#ffd500"></stop></linearGradient><clipPath id="c" transform="translate(54.483 59.826)"><path class="a" d="M128.283,146.94c-19.463,23.192-51.509,30.935-78.228,20.5a87.744,87.744,0,0,0,37.7,8.569h.354a88.166,88.166,0,0,0,75.824-43.515A77.106,77.106,0,0,0,119.815,50.1a68.732,68.732,0,0,1,8.473,96.831l-.009.01"></path></clipPath><linearGradient id="d" x1="-691.279" y1="213.608" x2="-690.279" y2="213.608" gradientTransform="matrix(-56.942, 118.44, 108.052, 62.416, -62254.17, 68662.598)" gradientUnits="userSpaceOnUse"><stop offset="0" stop-color="#ffd500"></stop><stop offset="0.264" stop-color="#ef7d00"></stop><stop offset="0.561" stop-color="#b82585"></stop><stop offset="1" stop-color="#213a8f"></stop></linearGradient><clipPath id="e" transform="translate(54.483 59.826)"><path class="a" d="M20.6,31.442A87.976,87.976,0,0,0,31.416,155.388l.018.015,24.751-29.49a68.733,68.733,0,0,1-8.48-96.832l.012-.015C67.18,5.874,99.226-1.867,125.945,8.574A88.084,88.084,0,0,0,20.6,31.442"></path></clipPath><linearGradient id="f" x1="-683.986" y1="216.344" x2="-682.986" y2="216.344" gradientTransform="matrix(25.225, 78.102, 63.299, -31.124, 3663.365, 60266.155)" gradientUnits="userSpaceOnUse"><stop offset="0" stop-color="#8acbc1"></stop><stop offset="0.266" stop-color="#5fc4e1"></stop><stop offset="0.554" stop-color="#7295cd"></stop><stop offset="1" stop-color="#213a8f"></stop></linearGradient><clipPath id="g" transform="translate(54.483 59.826)"><path class="a" d="M20.6,31.442A88.493,88.493,0,0,0,12.063,43.52a77.1,77.1,0,0,0,44.118,82.388,68.731,68.731,0,0,1-8.474-96.83l.01-.012C67.18,5.874,99.226-1.867,125.945,8.574A88.084,88.084,0,0,0,20.6,31.442"></path></clipPath><linearGradient id="h" x1="-688.725" y1="202.155" x2="-687.725" y2="202.155" gradientTransform="matrix(56.481, -118.001, -107.651, -61.911, 60757.976, -68579.654)" gradientUnits="userSpaceOnUse"><stop offset="0" stop-color="#0056a4"></stop><stop offset="0.247" stop-color="#28b8ce"></stop><stop offset="0.565" stop-color="#74b959"></stop><stop offset="1" stop-color="#ffd500"></stop></linearGradient></defs><path class="b" d="M549.058,48.908a14.583,14.583,0,0,1,1.12-5.709,14.936,14.936,0,0,1,3.04-4.647,14.225,14.225,0,0,1,4.5-3.124,13.529,13.529,0,0,1,5.541-1.142,13.9,13.9,0,0,1,5.62,1.142,14.3,14.3,0,0,1,4.56,3.124A14.749,14.749,0,0,1,576.5,43.2a15.111,15.111,0,0,1,0,11.417,14.749,14.749,0,0,1-3.061,4.647,14.3,14.3,0,0,1-4.56,3.124,13.908,13.908,0,0,1-5.62,1.142,13.529,13.529,0,0,1-5.541-1.142,14.236,14.236,0,0,1-4.5-3.124,14.924,14.924,0,0,1-3.04-4.647,14.574,14.574,0,0,1-1.12-5.708m2.92,0a12.577,12.577,0,0,0,.86,4.686,11.705,11.705,0,0,0,2.38,3.766,11.18,11.18,0,0,0,3.58,2.524,10.792,10.792,0,0,0,4.461.921,11.032,11.032,0,0,0,4.52-.921,11.332,11.332,0,0,0,3.62-2.524,11.783,11.783,0,0,0,2.421-3.766,12.923,12.923,0,0,0,0-9.373,11.76,11.76,0,0,0-2.421-3.766,11.323,11.323,0,0,0-3.62-2.523,11.033,11.033,0,0,0-4.52-.922,10.806,10.806,0,0,0-4.461.922,11.177,11.177,0,0,0-3.58,2.523,11.688,11.688,0,0,0-2.38,3.766,12.563,12.563,0,0,0-.86,4.687m6.4-6.29a1.169,1.169,0,0,1,.991-1.322,1.216,1.216,0,0,1,.33,0h4.52a4.732,4.732,0,0,1,3.44,1.242,4.473,4.473,0,0,1,1.28,3.365,4.287,4.287,0,0,1-.92,2.744,3.878,3.878,0,0,1-.88.821,3.046,3.046,0,0,1-.96.441v.08a1.1,1.1,0,0,1,.12.16.9.9,0,0,1,.16.261,2.813,2.813,0,0,0,.24.42l2.08,4.046a1.237,1.237,0,0,1,.16,1.1.872.872,0,0,1-.88.42h-.479a1.574,1.574,0,0,1-1.561-.961l-2.32-4.887h-2.482v4.567a1.113,1.113,0,0,1-1.239,1.281h-.36a1.115,1.115,0,0,1-1.246-.966,1.146,1.146,0,0,1,0-.315Zm5.241,5.849a2.345,2.345,0,0,0,1.8-.681,2.644,2.644,0,0,0,.64-1.883,2.441,2.441,0,0,0-.64-1.8,2.376,2.376,0,0,0-1.76-.642h-2.442v5.008Zm-116.6,9.578a33.609,33.609,0,0,1,11.5,1.729,55.778,55.778,0,0,1,7.382,3.2,4.676,4.676,0,0,1,2.66,3.2,6.766,6.766,0,0,1-.665,4.262l-1.33,2.4a4.657,4.657,0,0,1-3.059,2.8,7.4,7.4,0,0,1-4.389-.665q-2.26-1.066-5.453-2.2a22.3,22.3,0,0,0-7.449-1.132,11.438,11.438,0,0,0-6.783,1.731,5.719,5.719,0,0,0-2.394,4.928,5.3,5.3,0,0,0,2.46,4.529,25.628,25.628,0,0,0,6.251,3.064q3.792,1.332,8.114,2.864a40.344,40.344,0,0,1,8.114,3.928,20.627,20.627,0,0,1,6.251,6.127,16.837,16.837,0,0,1,2.461,9.457,19.221,19.221,0,0,1-1.8,8.325,19.02,19.02,0,0,1-5.18,6.582,25.293,25.293,0,0,1-8.18,4.4,33.463,33.463,0,0,1-10.641,1.6,35.623,35.623,0,0,1-13.9-2.4,49.641,49.641,0,0,1-8.712-4.529,4.61,4.61,0,0,1-2.527-3.33,6.313,6.313,0,0,1,1.2-4.262l1.6-2.4a4.983,4.983,0,0,1,3.259-2.4,7.274,7.274,0,0,1,4.324,1.065q2.393,1.332,6.184,3a22.2,22.2,0,0,0,8.978,1.665,11.426,11.426,0,0,0,6.917-1.865,5.96,5.96,0,0,0,2.527-5.061,5.141,5.141,0,0,0-2.461-4.462,29.4,29.4,0,0,0-6.251-3.064q-3.79-1.4-8.114-3a43.045,43.045,0,0,1-8.113-4,20.57,20.57,0,0,1-6.251-6.127,17.1,17.1,0,0,1-2.461-9.59,18.135,18.135,0,0,1,7.648-15.184,26.192,26.192,0,0,1,8.246-3.863,36.87,36.87,0,0,1,10.042-1.332m-197.708,0a33.594,33.594,0,0,1,11.5,1.731,55.778,55.778,0,0,1,7.382,3.2,4.676,4.676,0,0,1,2.66,3.2,6.779,6.779,0,0,1-.665,4.262l-1.33,2.4a4.657,4.657,0,0,1-3.059,2.8,7.4,7.4,0,0,1-4.389-.665q-2.262-1.067-5.453-2.2a22.3,22.3,0,0,0-7.449-1.132,11.438,11.438,0,0,0-6.783,1.731,5.719,5.719,0,0,0-2.394,4.928,5.3,5.3,0,0,0,2.46,4.529,25.628,25.628,0,0,0,6.251,3.064q3.792,1.332,8.114,2.864a40.424,40.424,0,0,1,8.114,3.928,20.6,20.6,0,0,1,6.25,6.127,16.837,16.837,0,0,1,2.461,9.457,19.219,19.219,0,0,1-1.795,8.325A19,19,0,0,1,266,123.174a25.3,25.3,0,0,1-8.181,4.4,33.457,33.457,0,0,1-10.64,1.6,35.623,35.623,0,0,1-13.9-2.4,49.65,49.65,0,0,1-8.713-4.529,4.607,4.607,0,0,1-2.526-3.33,6.313,6.313,0,0,1,1.2-4.262l1.6-2.4a4.979,4.979,0,0,1,3.258-2.4,7.271,7.271,0,0,1,4.323,1.065q2.394,1.332,6.185,3a22.2,22.2,0,0,0,8.978,1.665,11.423,11.423,0,0,0,6.916-1.865,5.957,5.957,0,0,0,2.527-5.061,5.144,5.144,0,0,0-2.46-4.462,29.4,29.4,0,0,0-6.251-3.064q-3.792-1.4-8.114-3a43.045,43.045,0,0,1-8.113-4,20.6,20.6,0,0,1-6.252-6.127,17.111,17.111,0,0,1-2.46-9.59,18.135,18.135,0,0,1,7.648-15.184,26.17,26.17,0,0,1,8.246-3.863,36.87,36.87,0,0,1,10.042-1.332M491.832,33q5.586,0,5.586,5.595V66.037q0,1.332-.067,2.331t-.2,1.8a11.587,11.587,0,0,0-.133,1.6h.266a22.536,22.536,0,0,1,3.392-4.862,26.915,26.915,0,0,1,5.187-4.462,26.578,26.578,0,0,1,6.783-3.2,26.972,26.972,0,0,1,8.181-1.2q11.306,0,17.49,6.127T544.5,83.884v38.094q0,5.593-5.585,5.594H533.2q-5.586,0-5.586-5.594V87.348q0-6.261-2.128-10.057t-8.513-3.8a18.583,18.583,0,0,0-8.047,1.731,18.111,18.111,0,0,0-6.184,4.728,21.715,21.715,0,0,0-3.924,7.126,27.69,27.69,0,0,0-1.4,8.924v25.974q0,5.593-5.586,5.594h-5.711q-5.588,0-5.587-5.594V38.6q0-5.6,5.587-5.595ZM403.459,59.643q5.454,0,5.454,5.594v56.742q0,5.593-5.454,5.594h-5.852q-5.453,0-5.453-5.594V65.237q0-5.592,5.453-5.594Zm-112.855,0q5.055,0,5.985,4.928L307.5,104.263q.264,1.467.464,2.664t.466,2.265q.267,1.2.4,2.264h.265q.134-1.065.4-2.264.264-1.065.465-2.265t.6-2.664l11.437-39.689q.931-4.794,6.119-4.8h5.054a5.736,5.736,0,0,1,6.118,4.8l11.3,39.692a27.042,27.042,0,0,1,.6,2.664q.2,1.2.466,2.265.267,1.2.4,2.264h.266q.134-1.065.4-2.264.266-1.065.465-2.265a26.937,26.937,0,0,1,.6-2.664l10.769-39.692q1.2-4.927,6.119-4.928h6.118q3.06,0,4.256,1.732a5.181,5.181,0,0,1,.4,4.528l-17.424,57.008a5.9,5.9,0,0,1-6.252,4.662h-8.911q-5.055,0-6.252-4.795L332.369,88.816q-.4-1.332-.665-2.664t-.533-2.4q-.264-1.2-.4-2.264H330.5q-.264,1.068-.532,2.264-.265,1.068-.531,2.4t-.665,2.664l-10.24,33.958a5.735,5.735,0,0,1-6.119,4.8H303.24a5.821,5.821,0,0,1-6.118-4.662L279.565,65.9a5.03,5.03,0,0,1,.465-4.528,4.841,4.841,0,0,1,4.19-1.732Z" transform="translate(54.483 59.826)"></path><rect class="a" x="54.483" y="59.83" width="577.62" height="176"></rect><g class="c"><polygon class="d" points="285.624 215.366 221.733 21.601 60.045 102.767 123.936 296.532 285.624 215.366"></polygon></g><g class="e"><polygon class="f" points="130.195 56.558 56.46 209.929 196.925 291.068 270.66 137.697 130.195 56.558"></polygon></g><g class="g"><polygon class="h" points="0 79.511 62.552 273.188 224.261 193.677 161.709 0 0 79.511"></polygon></g><g class="i"><polygon class="j" points="154.947 238.969 228.386 85.54 87.864 4.724 14.425 158.153 154.947 238.969"></polygon></g></svg>