<svg width="537" height="591" viewBox="0 0 537 591" fill="none" xmlns="http://www.w3.org/2000/svg">
<path d="M209.029 1.45638C199.41 2.254 187.928 4.00879 183.584 5.44453C169.31 10.3899 156.587 25.8639 153.639 42.1357C153.018 45.4857 151.312 49.9525 149.76 52.0263C144.485 59.0455 143.243 71.8076 144.33 107.382C144.795 125.728 145.881 143.754 146.812 147.264C148.053 152.688 148.208 152.209 147.433 143.276C146.967 137.533 146.967 133.225 147.278 133.704C147.743 134.183 150.691 139.926 154.104 146.466C160.621 159.547 171.016 169.278 180.326 171.033C182.963 171.671 194.29 170.714 205.151 168.959C253.404 161.302 284.9 161.302 328.809 168.959C346.187 171.99 347.273 171.99 352.703 169.278C355.806 167.843 362.013 162.738 366.512 158.112C371.943 152.369 375.356 149.976 377.063 150.614C378.459 151.092 379.545 152.369 379.7 153.485C379.855 157.633 382.338 148.061 383.424 138.809C384.355 130.035 386.993 123.813 387.458 129.237C387.613 130.354 388.544 125.249 389.63 117.751C391.802 102.596 390.406 64.4694 387.458 56.4931C384.665 49.1548 384.2 52.3454 386.682 61.917C390.251 75.1577 388.855 107.542 384.2 120.144C377.528 138.171 359.685 149.976 339.36 149.497C332.378 149.338 332.378 149.338 342.773 147.264C363.874 142.957 376.908 131.152 381.873 112.008C383.734 104.83 384.2 96.2152 383.89 75.7958C383.734 60.9598 382.959 48.5167 382.338 48.1977C381.562 47.7191 381.097 45.3262 381.097 42.9333C381.097 35.1165 372.253 19.3233 364.495 13.2613C354.72 5.60405 345.256 3.05164 319.81 1.29684C294.365 -0.457947 234.475 -0.457947 209.029 1.45638ZM335.791 4.48738C356.582 6.88028 368.219 15.0161 374.27 31.7664C377.683 40.8595 378.459 103.872 375.201 113.125C372.718 120.463 363.409 130.194 355.496 133.704C348.204 137.054 314.69 139.128 299.64 137.214C291.882 136.097 294.985 135.778 317.483 134.98C332.378 134.342 347.428 132.906 350.841 131.79C359.22 129.078 369.46 118.549 371.632 110.732C372.563 107.223 373.029 104.032 372.563 103.713C371.322 102.277 350.997 110.413 335.016 118.549C325.861 123.335 318.259 127.004 317.948 126.844C317.638 126.366 352.548 102.596 364.495 95.4176C369.305 92.3866 373.339 89.3556 373.339 88.7175C373.339 85.846 341.377 101.48 329.43 110.094C326.948 111.849 324.775 112.966 324.31 112.646C323.689 111.849 348.824 91.2699 364.03 80.2625C368.684 76.9125 372.874 73.8815 373.184 73.5624C373.494 73.2434 373.494 72.6053 372.874 72.1267C371.632 70.8505 348.514 83.6126 332.999 94.1414L321.362 101.958L332.223 91.4294C338.274 85.6864 349.911 75.3172 358.289 68.6171L373.649 56.3335L372.874 45.1667C372.098 31.4474 367.753 22.1948 359.375 15.8138C347.893 7.35884 343.239 6.88028 267.058 6.88028C191.031 6.88028 186.066 7.35884 175.05 15.6542C171.637 18.2067 167.293 23.471 165.276 27.9378C161.707 35.1165 161.552 37.5094 161.086 70.5314C160.466 110.573 161.397 115.518 171.792 124.611C180.481 132.428 186.377 133.704 217.408 134.98C238.664 135.778 243.319 136.256 236.802 137.054C221.132 139.128 187.308 136.895 178.929 133.225C170.861 129.875 163.103 121.739 159.69 113.444C156.587 105.787 155.501 77.2315 157.363 53.4621C158.759 36.0737 159.69 31.9259 163.414 24.9068C168.224 15.9733 177.223 8.7946 187.928 5.92311C202.358 1.77542 302.588 0.977783 335.791 4.48738ZM337.188 21.2377C337.498 22.1948 326.017 43.4119 311.587 68.298L285.521 113.763H267.058H248.439L222.373 68.6171C207.168 42.6142 196.617 22.5139 197.082 21.0781C197.858 19.1638 207.478 18.8448 267.213 19.1638C313.914 19.4829 336.722 20.121 337.188 21.2377ZM150.691 118.549C151.467 120.623 151.467 121.261 150.381 120.144C146.967 116.635 145.261 106.903 145.261 89.8341C145.261 59.205 147.433 58.0883 148.519 88.2389C149.139 103.075 150.07 116.794 150.691 118.549ZM164.034 136.256C171.016 143.914 177.378 146.945 184.515 145.988L191.031 145.03L187.308 148.221L183.739 151.252L193.514 151.411L203.444 151.571L193.359 154.442L183.274 157.314L190.721 157.473C194.755 157.633 198.013 158.431 198.013 159.388C198.013 160.504 194.29 160.824 187.152 160.504C178.774 160.185 176.757 160.504 178.619 161.781C182.343 164.652 181.412 165.609 176.757 163.855C171.327 161.781 164.965 155.559 159.069 146.945C153.484 138.649 153.329 137.373 158.604 141.521C164.345 146.147 166.206 145.668 162.638 140.404C161.086 138.011 159.225 135.14 158.604 134.023C156.587 130.673 160.155 131.949 164.034 136.256Z" fill="black"/>
<path d="M241.922 31.4474L229.2 32.4046L240.371 52.3454C246.577 63.3528 255.111 77.5507 259.145 84.0912L266.592 95.7367L273.419 84.0912C277.143 77.5507 280.246 71.8077 280.246 71.0101C280.246 70.372 275.901 69.8934 270.471 69.8934C261.317 69.8934 260.541 69.5743 258.059 65.1076L255.266 60.3218H271.557H287.848L291.107 55.536L294.365 50.7502H271.402H248.284L245.646 46.1239C244.25 43.5715 243.009 41.019 243.009 40.5405C243.009 40.0619 255.886 39.5833 271.557 39.5833H300.106L302.588 35.5951C303.985 33.5213 305.071 31.2879 305.071 30.8093C305.071 29.8522 259.3 30.3308 241.922 31.4474Z" fill="#FF9900"/>
<path d="M135.175 98.7677C134.089 100.363 134.71 110.892 136.882 129.237C137.658 136.416 137.658 136.735 133.314 137.373L128.969 138.011L133.314 138.33C135.641 138.33 137.503 138.649 137.503 138.809C140.761 178.371 149.295 243.139 151.932 246.489C152.708 247.606 154.725 248.563 156.432 248.563C158.759 248.563 159.069 247.925 157.828 245.692C156.897 243.937 156.277 241.385 156.277 239.63C156.432 238.034 155.966 234.844 155.346 232.611C154.415 228.782 154.415 228.782 156.897 233.089C158.294 235.482 158.914 238.194 158.449 238.832C157.363 240.746 160.776 248.563 162.638 248.563C163.414 248.563 163.259 247.127 162.328 245.532C158.449 238.034 161.862 236.599 165.896 243.937C169.465 250.318 171.172 248.882 167.758 242.342C166.362 239.47 166.051 237.396 166.982 237.396C168.068 237.396 168.224 236.439 166.982 234.365C166.207 232.611 165.431 230.218 165.431 229.101C165.586 225.91 168.224 231.175 169.154 236.439C169.93 240.746 174.119 248.563 175.516 248.563C175.981 248.563 175.361 246.489 173.964 243.777C170.396 236.599 171.172 236.28 177.223 242.342L182.808 247.766L181.722 241.385C181.101 237.875 179.084 224.475 177.223 211.553C174.74 194.005 173.189 187.305 170.861 184.753C169.154 182.838 166.982 179.329 165.896 177.095C164.19 173.107 164.19 173.426 164.034 181.403C163.879 191.453 162.793 191.453 160.931 181.403L159.535 174.383L159.225 183.157C158.914 191.612 158.759 191.772 157.673 185.869C155.966 176.776 154.57 176.936 154.415 186.507C154.26 194.165 154.104 194.643 153.018 189.857C151.156 181.881 149.915 181.881 149.76 189.698C149.605 196.238 149.45 196.398 148.364 191.931C146.657 186.029 140.761 132.747 139.52 113.125C138.589 99.0867 137.348 94.939 135.175 98.7677ZM163.103 234.206C163.879 236.918 163.724 237.715 162.638 236.599C161.862 235.642 160.621 233.249 160 231.015C159.225 228.303 159.38 227.506 160.466 228.622C161.242 229.42 162.483 231.972 163.103 234.206ZM175.516 234.365C176.912 237.077 177.688 239.63 177.223 240.108C176.602 240.746 171.637 232.292 171.637 230.218C171.637 228.144 173.344 229.899 175.516 234.365Z" fill="black"/>
<path d="M126.797 102.118C126.952 104.032 127.417 107.542 128.193 109.775C129.124 113.125 129.434 113.285 130.365 111.051C130.986 109.616 131.296 106.425 130.986 104.032C130.365 98.6082 126.642 96.8534 126.797 102.118Z" fill="black"/>
<path d="M396.923 101.958C394.44 105.946 394.595 109.296 397.233 110.254C399.56 111.211 401.267 108.339 401.267 103.394C401.267 99.0867 399.095 98.2891 396.923 101.958Z" fill="black"/>
<path d="M385.906 137.054C385.906 140.085 386.372 141.521 386.837 140.404C387.148 139.447 390.096 138.33 393.199 138.33C398.474 138.011 398.474 138.011 394.285 137.373C391.802 137.054 388.699 135.459 387.768 134.023C386.062 131.949 385.751 132.268 385.906 137.054Z" fill="black"/>
<path d="M384.355 149.019C384.355 150.774 384.821 151.252 385.286 149.976C385.752 148.859 385.596 147.423 385.131 146.945C384.665 146.307 384.2 147.264 384.355 149.019Z" fill="black"/>
<path d="M382.803 158.59C382.803 160.345 383.269 160.824 383.734 159.547C384.2 158.431 384.045 156.995 383.579 156.516C383.114 155.878 382.648 156.835 382.803 158.59Z" fill="black"/>
<path d="M381.252 168.162C381.252 169.917 381.717 170.395 382.183 169.119C382.648 168.002 382.493 166.567 382.027 166.088C381.562 165.45 381.096 166.407 381.252 168.162Z" fill="black"/>
<path d="M162.327 168.8C160.931 169.757 160.776 170.395 161.862 170.395C162.793 170.395 164.189 169.598 164.654 168.8C165.896 166.886 165.275 166.886 162.327 168.8Z" fill="black"/>
<path d="M245.335 168.321C220.355 171.671 177.222 178.531 176.602 179.169C174.895 180.764 185.135 183.317 190.255 182.36C194.445 181.722 195.22 181.881 193.358 183.157C190.1 185.71 207.943 183.955 223.303 180.126C238.043 176.457 236.647 179.329 221.752 183.317C215.856 184.912 212.753 186.188 214.615 186.188C220.2 186.348 234.319 182.998 236.802 180.764C241.146 177.095 251.697 172.309 257.748 171.352C263.178 170.395 262.713 170.874 254.179 174.224C248.904 176.457 242.232 179.967 239.44 182.2C234.164 186.348 224.079 188.741 203.909 190.496L192.117 191.612L191.031 209.32C189.635 231.334 191.652 242.98 198.168 253.509C200.961 257.816 203.444 261.325 203.599 261.325C203.909 261.325 202.978 258.773 201.737 255.742C198.013 246.489 199.254 246.011 205.15 254.306C208.253 258.613 210.27 260.687 209.805 258.932C209.339 257.178 208.564 252.87 208.098 249.361C207.478 245.851 206.702 241.704 206.236 240.108C205.926 238.673 206.236 237.396 207.012 237.396C207.788 237.396 208.874 240.427 209.495 244.096C212.132 260.687 224.7 283.181 231.371 283.181C234.164 283.181 234.319 281.745 231.837 279.192C228.734 276.002 232.923 276.959 238.353 280.788C241.146 282.861 244.56 286.212 245.956 288.285C248.283 292.114 248.283 292.114 244.87 291.316C242.543 290.678 241.457 290.997 241.922 292.114C242.698 294.666 248.594 297.538 256.972 299.452C263.489 300.888 263.178 301.048 252.317 300.569C245.956 300.25 239.284 299.612 237.578 298.814C235.095 297.697 235.25 298.495 238.819 302.324C243.784 307.748 244.249 309.981 240.06 307.588C235.25 305.036 234.475 305.674 237.888 309.502C239.905 311.895 241.301 316.362 241.922 321.945C242.388 327.05 245.18 335.984 248.283 343.163C256.196 360.87 255.11 362.146 246.577 345.077C242.698 337.101 235.716 325.934 231.216 320.031C222.838 309.343 220.511 305.036 225.631 309.502C231.371 314.607 232.302 314.288 229.199 307.907C227.493 304.398 222.062 298.017 217.097 293.869C212.132 289.721 206.857 285.095 205.305 283.819C202.823 281.745 202.978 282.861 206.391 290.838C210.115 299.612 210.115 300.09 207.167 296.421L203.754 292.433L204.995 296.421C205.616 298.655 207.788 303.121 209.805 306.312C214.925 314.607 214.46 315.883 208.719 309.183L204.064 303.6L206.702 309.183C208.098 312.214 210.426 316.203 211.822 317.798C213.839 320.35 213.839 320.669 211.977 319.553C210.736 318.914 208.253 317.16 206.547 315.724C203.599 313.172 203.599 313.331 206.236 317.479C209.495 322.743 209.65 324.657 206.702 322.105C204.064 319.712 202.668 325.934 202.668 341.089C202.668 350.979 203.133 352.415 208.408 359.594L213.994 367.411L206.857 360.232C202.823 356.403 199.565 354.01 199.565 355.127C199.565 357.839 203.599 365.815 208.564 372.994C211.356 377.301 210.581 376.663 204.84 370.601C200.806 366.134 198.013 363.901 198.479 365.496C199.099 367.251 200.03 370.442 200.496 372.675C201.892 378.258 199.254 375.866 196.927 369.325L195.22 364.22L193.358 369.484C191.341 375.227 189.48 374.749 188.238 368.208C187.618 364.858 187.618 365.018 187.307 369.325C187.152 376.344 184.67 376.025 182.342 368.687L180.481 362.625L178.464 369.006L176.446 375.387L176.757 366.134C176.912 361.189 176.912 357.041 176.912 357.041C176.757 357.041 172.568 359.594 167.603 362.625C158.138 368.527 155.19 369.484 157.052 366.134C157.828 365.018 157.207 365.177 155.501 366.613C153.794 367.889 153.328 369.165 154.414 369.484C155.345 369.803 156.121 372.356 156.121 375.068V380.173L152.863 374.908L149.449 369.644L154.104 363.741C157.983 358.796 161.396 356.882 174.429 352.256C193.203 345.555 192.117 347.948 191.962 309.981C191.807 287.807 191.186 282.223 187.618 267.866L183.428 251.435L174.74 252.232C169.775 252.87 162.172 252.87 157.828 252.232C150.846 251.435 149.449 250.637 147.432 246.649C145.26 242.342 144.329 241.863 138.899 242.501C131.762 243.139 132.227 244.096 129.124 223.198C127.728 214.903 126.486 208.043 126.331 207.884C125.4 207.246 0.189941 329.443 0.189941 330.879C0.189941 331.836 23.9287 355.446 52.9428 383.363C81.9568 411.28 141.847 469.348 186.066 512.42C230.285 555.493 267.057 590.748 267.678 590.748C268.609 590.748 357.358 504.923 450.916 413.514C458.209 406.495 480.396 384.959 500.411 365.815L536.717 330.879L524.46 318.914C517.633 312.214 490.947 286.371 464.88 261.485C438.814 236.599 413.989 212.51 409.49 208.203L401.577 200.386L399.87 209.639C398.939 214.903 396.922 224.475 395.371 231.015L392.733 242.98L386.527 242.501C381.096 242.182 380.01 242.661 377.838 246.649C375.666 250.478 374.114 251.435 367.132 252.232C362.633 252.87 355.03 252.87 350.221 252.392L341.532 251.435L337.653 266.271C334.55 278.554 333.774 285.892 333.309 306.79C332.998 321.786 333.464 335.665 334.55 340.451C336.101 348.267 336.567 348.746 342.152 349.703C345.411 350.182 349.91 352.096 352.082 354.01C354.41 355.765 356.892 356.882 357.668 356.403C359.375 355.287 377.993 361.668 388.078 366.932C392.423 369.165 408.249 374.749 423.299 379.375L450.761 387.67L463.949 375.227L477.138 362.625L470.311 349.703C466.432 342.524 463.329 336.143 463.329 335.505C463.329 335.027 468.604 338.855 474.965 344.279L486.447 354.17L491.412 350.501L496.377 346.832L488.309 339.174C478.689 330.081 479.62 329.284 490.947 337.101L499.17 342.843L506.152 336.781L513.289 330.879L487.223 305.355C458.984 277.916 410.886 228.941 416.006 232.77C429.97 243.777 490.947 301.048 511.892 323.222L521.047 332.634L492.033 362.465C449.675 405.857 301.502 547.357 293.123 552.302C291.882 552.94 309.57 534.754 332.533 511.623C391.492 452.279 407.783 435.209 424.54 415.269L439.28 397.721L426.867 408.888C408.559 425.159 406.076 427.074 412.283 420.054C426.092 404.261 423.144 404.261 407.938 420.054C390.251 438.559 379.855 447.812 392.112 434.252C401.732 423.724 406.697 416.545 409.645 408.888L412.128 402.506L407.318 408.09C404.68 411.121 394.44 423.883 384.665 436.326C374.89 448.929 366.512 459.138 366.046 459.138C365.581 459.138 367.753 455.788 370.856 451.481C378.304 441.59 390.406 423.404 395.681 414.471L399.87 407.292L391.026 416.864C386.217 422.128 378.304 431.859 373.649 438.4C361.857 454.512 354.875 462.329 352.082 462.329C350.065 462.329 350.065 462.808 351.617 464.722C353.168 466.636 352.858 467.274 349.91 468.55C347.893 469.189 345.256 469.508 344.325 469.189C343.239 468.71 342.308 469.189 342.308 470.146C342.308 471.103 343.394 471.901 344.635 471.901C346.652 471.901 346.807 472.539 345.411 475.091C344.169 477.484 342.152 478.282 337.187 478.441C331.602 478.441 331.136 478.76 334.24 480.036C339.67 482.27 336.877 484.663 328.654 484.822C321.517 484.982 321.517 484.982 326.482 486.417C331.912 488.013 332.688 489.608 329.119 492.639C327.723 493.915 323.999 494.234 318.724 493.596C310.811 492.799 310.811 492.799 316.397 494.394C325.706 497.106 322.448 499.818 310.346 499.658C299.95 499.499 299.795 499.499 306.312 501.094C319.5 504.284 310.966 508.432 297.157 505.401L288.158 503.327L282.262 508.592C276.367 514.016 274.039 513.058 277.297 506.677L279.159 503.008L274.97 506.837C269.54 512.101 268.143 510.027 272.643 503.487C276.056 498.542 275.746 498.542 268.919 504.923C264.885 508.751 260.696 511.782 259.61 511.782C254.8 511.782 204.685 488.332 206.236 486.896C206.702 486.417 213.994 488.81 222.372 492.32C237.733 498.701 254.024 504.284 254.955 503.327C255.11 503.008 253.714 501.094 251.542 499.02C249.37 496.946 247.663 494.713 247.663 494.075C247.663 493.437 259.765 486.737 274.505 479.239C321.206 455.469 322.603 454.353 335.015 436.007C349.91 413.673 350.221 412.557 339.049 422.926C321.206 439.517 302.743 450.045 287.693 451.96L281.021 452.757L288.779 449.886C323.379 436.486 350.841 409.207 356.427 382.566C358.599 372.037 356.427 365.337 348.359 357.999C340.446 350.66 337.808 350.501 344.945 357.839C350.376 363.422 350.531 363.741 349.6 373.473C346.962 406.495 317.638 437.762 280.556 447.333C264.42 451.481 243.939 446.536 222.528 433.455C211.512 426.755 192.893 410.004 189.945 404.261C189.014 402.347 192.117 404.58 196.617 409.207C201.271 413.673 208.874 419.895 213.684 422.926C223.303 429.147 240.681 435.848 243.939 434.571C245.491 433.933 242.853 428.509 234.63 415.747C228.268 405.857 223.459 397.402 223.924 396.923C224.234 396.604 227.182 399.475 230.596 403.304L236.647 410.483L235.095 404.421C234.164 401.071 233.699 395.328 234.009 391.659L234.475 384.959L237.578 390.701C241.146 397.242 263.489 427.074 264.885 427.233C265.506 427.233 270.315 423.085 275.746 417.821L285.676 408.409L274.66 409.207C267.988 409.685 262.403 409.366 260.696 408.409C258.213 406.973 259.299 406.495 266.281 406.335C273.419 406.176 274.039 405.857 270.16 404.899C265.816 403.783 265.661 403.623 269.385 403.304C272.953 403.145 272.953 402.826 267.833 400.592L262.403 398.04L267.833 395.966C270.781 394.849 272.022 393.892 270.626 393.892C267.678 393.732 247.042 376.344 248.283 374.908C248.749 374.589 249.99 374.749 251.076 375.706C252.162 376.504 255.11 378.099 257.593 379.056L262.092 381.13L259.455 376.982C256.507 372.356 257.748 371.877 263.023 375.546C266.592 378.099 266.592 378.099 264.73 374.589C263.023 371.239 263.178 371.08 266.281 371.877C269.54 372.675 269.54 372.675 266.902 369.644C264.264 366.772 264.42 366.613 269.54 366.453C272.488 366.294 273.574 365.975 272.177 365.496C267.988 364.38 268.919 361.827 273.419 361.827H277.608L273.419 358.477C271.246 356.722 269.385 354.489 269.385 353.691C269.385 352.894 266.902 348.427 263.954 343.801C261.006 339.334 258.524 334.867 258.524 333.91C258.524 331.517 287.538 311.736 295.761 308.545C300.881 306.631 306.001 302.164 314.845 292.433C321.517 284.935 326.637 278.873 326.327 278.873C326.016 278.873 321.051 280.947 315.466 283.659C305.691 288.285 294.985 290.519 300.416 286.85C302.122 285.733 301.347 285.254 297.313 285.254C287.848 285.254 279.625 282.064 275.28 276.959C272.953 274.087 270.781 272.173 270.471 272.652C270.16 272.971 268.298 275.683 266.281 278.714C263.333 283.181 262.558 283.659 261.316 281.426C260.541 279.99 260.386 278.076 260.851 277.278C261.782 275.683 257.903 276.161 251.387 278.076C250.456 278.395 247.818 276.799 245.646 274.726C243.474 272.652 240.836 270.897 239.905 270.897C238.819 270.897 238.353 268.504 238.664 264.835C239.129 258.932 239.129 258.932 249.68 256.221C255.576 254.785 261.472 252.551 263.023 251.116C264.575 249.68 268.454 248.085 271.557 247.447C274.505 246.968 276.677 246.011 276.211 245.213C275.746 244.416 276.987 243.777 279.004 243.618C281.021 243.618 281.642 243.139 280.556 242.661C279.625 242.342 279.004 241.385 279.47 240.587C279.78 239.949 271.867 238.832 261.782 238.194C244.715 237.237 242.853 237.396 236.802 240.587C231.371 243.458 229.975 243.618 228.889 241.863C227.337 239.47 227.337 237.715 228.889 233.568C229.665 231.334 230.441 231.015 231.216 232.292C232.923 235.323 238.819 234.525 248.283 230.218C259.299 225.272 274.194 224.794 287.848 229.26C297.933 232.451 299.485 231.813 293.899 226.868C287.693 221.284 284.279 218.891 285.521 220.965C286.917 223.677 285.055 223.518 280.245 220.806C277.608 219.21 275.28 219.051 272.798 220.008C268.609 221.603 263.178 220.487 263.178 218.094C263.178 217.296 264.109 216.658 265.195 216.498C266.126 216.498 265.351 215.701 263.333 214.903C260.23 213.627 258.058 214.265 250.611 219.051C240.681 225.272 238.353 225.91 238.353 221.763C238.509 220.327 242.853 215.701 248.283 211.394C255.576 205.81 259.455 203.896 263.489 203.896C266.437 203.896 270.936 202.779 273.574 201.503C277.608 199.429 279.159 199.429 286.607 201.503C291.261 202.779 297.933 204.693 301.657 205.651C311.432 208.363 339.98 203.258 344.79 197.993C348.669 193.686 351.617 193.207 350.686 197.036C350.221 198.631 348.359 210.436 346.497 223.358C342.618 248.723 342.618 248.563 350.996 248.563C353.789 248.563 354.875 247.447 355.496 244.096C355.961 241.704 357.047 237.556 357.823 235.003C359.064 231.175 359.22 232.132 358.599 239.63C357.823 250.637 358.909 250.318 361.857 238.673L363.874 230.218L363.409 239.789C362.788 248.882 362.943 249.201 364.96 244.575C366.046 241.863 366.977 238.992 367.132 237.875C367.132 236.918 367.908 235.482 368.994 234.844C370.236 234.046 370.391 234.844 369.615 237.556C366.667 248.723 366.667 248.563 370.08 248.563C373.649 248.563 373.959 247.287 373.494 235.642C373.184 231.653 374.58 220.008 376.442 209.639C378.304 199.27 379.39 189.379 379.079 187.465C378.614 185.072 378.304 185.55 378.148 189.06C378.148 191.931 377.528 194.324 376.752 194.324C376.132 194.324 375.821 190.974 375.976 186.667C376.442 178.052 375.511 179.169 373.494 189.698L372.097 196.717L371.787 187.145C371.477 181.881 371.011 179.169 370.701 181.083C369.77 186.348 367.443 185.55 366.822 179.648C366.202 172.309 363.098 172.469 359.375 179.967C354.41 190.017 351.462 190.815 329.74 186.667C319.5 184.753 308.949 182.2 306.156 181.083C301.657 179.169 302.898 178.85 319.034 179.01C328.809 179.169 339.049 178.531 341.532 177.733C349.755 175.181 294.83 167.364 270.16 167.524C259.144 167.683 247.973 168.002 245.335 168.321ZM292.037 175.979C299.64 181.881 305.381 183.955 322.913 187.145C345.256 191.134 344.48 192.888 321.827 189.379C304.76 186.667 301.812 185.71 294.52 180.445C290.02 177.255 282.418 173.745 277.453 172.629L268.609 170.395L277.608 171.193C284.279 171.671 288.003 172.948 292.037 175.979ZM363.564 189.857L362.788 201.503L364.96 194.324L367.132 187.145L366.357 195.122C365.891 201.981 366.046 202.46 367.443 199.11C368.839 195.76 369.305 195.6 369.77 197.993C370.391 200.705 370.701 200.705 373.184 198.312C375.821 195.919 375.976 196.238 375.666 201.822C375.201 209.639 371.632 228.303 370.391 229.739C368.684 231.653 362.478 229.26 362.478 226.549C362.478 224.475 362.012 224.634 359.995 227.187C357.668 230.218 357.668 230.218 358.444 227.027C358.909 225.272 359.53 220.965 359.995 217.456C360.461 213.946 359.375 216.977 357.513 224.156C355.651 231.494 353.634 237.396 353.013 237.396C350.996 237.396 350.686 213.308 352.548 204.374C354.099 196.717 362.012 178.372 363.719 178.372C364.185 178.372 364.029 183.636 363.564 189.857ZM118.884 234.046C118.884 234.844 97.1621 256.859 70.6305 282.861L22.5323 330.4L28.5834 336.781L34.7896 343.163L40.8407 339.493C53.4082 331.517 54.184 331.358 46.7366 338.377L38.9788 345.715L42.7025 349.703C44.8747 351.937 47.202 353.851 48.133 353.851C49.0639 353.691 54.6495 349.544 60.7006 344.279C66.5965 339.174 71.7166 335.027 71.8717 335.346C72.0269 335.505 69.0789 341.727 65.3552 349.225L58.5284 362.784L70.7857 375.387L83.0429 387.99L111.436 378.577C127.107 373.473 141.226 368.368 142.933 367.251C148.519 363.263 151.001 364.699 146.036 369.006C139.52 374.749 131.762 378.099 109.419 384.959C98.8688 388.309 89.5595 391.499 88.7837 392.297C87.8527 393.094 119.039 426.276 165.43 473.815C208.564 518.004 241.612 552.142 239.129 549.909C207.167 521.354 79.9398 399.954 51.3912 370.92L14.1539 333.112L42.0819 304.876C64.5794 282.064 116.867 232.77 118.574 232.611C118.729 232.611 118.884 233.249 118.884 234.046ZM114.074 262.442C99.7997 280.15 89.2491 290.838 73.7336 303.759C63.4933 312.214 54.8046 318.914 54.4943 318.436C53.2531 317.16 113.143 259.89 115.626 259.73C115.936 259.73 115.315 261.006 114.074 262.442ZM463.019 300.09C472.483 309.662 480.396 317.957 480.396 318.276C480.396 319.234 463.174 305.355 450.141 294.188C441.297 286.531 419.885 262.602 419.885 260.528C419.885 258.773 444.245 281.266 463.019 300.09ZM125.866 297.538C123.228 308.705 110.661 325.296 97.1621 335.505C86.4563 343.641 85.9909 342.365 95.9208 331.836C106.006 321.467 110.505 313.969 107.713 312.214C106.006 311.098 122.763 293.231 125.556 293.231C126.331 293.231 126.486 295.145 125.866 297.538ZM419.73 301.845C424.23 306.631 427.488 311.257 427.022 312.214C425.316 314.926 428.884 320.35 438.969 331.039C449.675 342.365 449.52 343.801 438.504 335.505C423.919 324.498 409.024 304.238 409.024 295.624C409.024 291.635 411.041 292.752 419.73 301.845ZM128.969 305.674L124.625 309.981L128.193 304.717C130.055 301.845 132.072 299.771 132.538 300.409C133.003 300.888 131.451 303.281 128.969 305.674ZM406.697 303.919L409.49 308.386L406.232 305.355C404.37 303.6 402.818 301.686 402.818 300.888C402.818 298.655 403.904 299.452 406.697 303.919ZM104.144 337.898C101.662 340.451 98.8688 342.684 98.093 342.684C96.5415 342.524 106.316 333.272 107.868 333.112C108.333 333.112 106.627 335.186 104.144 337.898ZM437.883 342.205C436.952 343.163 427.643 335.984 427.643 334.389C427.643 333.591 430.126 334.867 433.074 337.26C436.177 339.653 438.349 341.886 437.883 342.205ZM169.309 374.27C168.068 375.546 165.275 368.049 166.361 366.294C167.137 365.018 168.068 366.134 168.844 369.006C169.464 371.558 169.775 373.951 169.309 374.27ZM150.536 374.908C151.001 376.982 151.466 380.013 151.466 381.768C151.311 384.799 151.311 384.799 149.294 382.087C147.277 379.535 147.122 379.535 146.191 382.885C145.726 384.959 145.26 388.468 145.26 390.701C145.26 394.69 144.95 394.849 134.089 395.806C127.883 396.285 122.142 395.966 121.366 395.168C120.435 394.371 121.366 393.732 123.849 393.732C127.262 393.732 127.728 393.094 126.952 390.223C126.486 387.99 126.642 387.192 127.883 387.99C128.969 388.628 129.745 390.223 129.745 391.34C129.745 392.775 130.676 393.254 132.072 392.775C133.624 392.137 134.089 390.542 133.468 387.99C132.382 383.363 135.33 382.725 136.727 387.351C137.502 390.063 138.589 388.787 142.467 380.97C147.432 370.601 148.984 369.484 150.536 374.908ZM198.944 421.012C203.909 425.797 214.149 434.093 221.752 439.198C237.112 449.726 238.819 452.917 224.079 443.824C204.995 432.178 193.048 421.331 184.98 409.047C179.55 400.592 179.86 398.04 185.445 405.857C187.773 409.207 193.979 416.066 198.944 421.012ZM166.051 410.802C170.24 415.109 173.188 417.342 172.568 416.066C171.326 413.514 173.964 416.385 211.201 457.543C231.371 479.717 240.991 492.639 237.423 492.639C235.406 492.639 225.786 485.939 223.924 483.067C222.838 481.472 215.856 476.367 208.564 471.582C191.341 460.734 177.843 448.929 177.688 444.302C177.533 441.431 177.377 441.271 176.757 443.664C175.671 447.812 171.171 446.376 169.93 441.59C169.309 439.357 168.844 438.559 168.689 439.517C168.378 443.983 165.43 441.271 165.43 436.326C165.275 432.178 165.12 431.7 163.724 433.933C161.241 438.559 159.845 437.283 160.465 430.743L160.931 424.84L157.362 430.424L153.794 436.007L153.328 431.7C153.018 429.307 153.639 425.957 154.414 424.202C157.518 418.3 156.121 417.342 150.691 421.49C144.95 426.116 143.864 424.84 146.812 417.023C148.674 411.599 146.346 411.759 142.312 417.183C140.45 419.416 138.744 421.012 138.278 420.693C137.037 419.257 141.226 407.771 143.243 406.973C144.329 406.495 151.777 411.759 159.69 418.619C180.946 437.124 181.101 437.124 167.292 421.809C155.19 408.249 152.242 403.304 156.431 403.304C157.518 403.304 161.707 406.654 166.051 410.802ZM250.766 461.531C267.212 465.2 268.454 465.2 291.106 459.777C299.019 458.022 291.727 462.169 275.901 468.55C260.386 474.932 259.61 475.091 250.3 473.496C245.025 472.698 240.06 471.901 239.44 471.901C238.664 471.901 238.664 471.103 239.129 470.305C239.595 469.348 242.388 468.55 245.025 468.55C249.059 468.391 248.594 468.072 241.922 466.477C235.095 465.041 233.078 463.605 229.199 458.022C222.993 449.248 223.148 448.45 229.82 453.555C233.389 456.426 240.215 458.979 250.766 461.531Z" fill="black"/>
<path d="M361.236 207.086C361.236 209.32 361.547 210.117 362.012 209.001C362.322 208.043 362.322 206.129 362.012 205.012C361.547 204.055 361.236 204.853 361.236 207.086Z" fill="black"/>
<path d="M363.254 168.8C363.719 169.757 366.201 171.512 368.684 172.788C372.563 174.862 373.183 174.862 373.959 172.788C374.425 171.512 374.114 170.395 373.183 170.395C372.253 170.395 372.097 169.598 372.563 168.8C373.183 167.843 371.322 167.205 367.908 167.205C364.495 167.205 362.633 167.843 363.254 168.8Z" fill="black"/>
<path d="M379.7 177.733C379.7 179.488 380.166 179.967 380.631 178.691C381.097 177.574 380.942 176.138 380.476 175.66C380.011 175.021 379.545 175.979 379.7 177.733Z" fill="black"/>
<path d="M131.297 192.729C130.055 193.527 129.435 194.643 129.9 195.122C130.521 195.6 131.762 194.962 132.848 193.527C135.02 190.815 134.555 190.496 131.297 192.729Z" fill="black"/>
<path d="M382.803 212.67C380.786 224.794 378.925 235.961 378.614 237.396C378.304 238.673 378.925 237.556 380.166 235.003C383.89 227.027 387.458 208.203 386.993 198.95C386.527 191.293 386.217 192.569 382.803 212.67Z" fill="black"/>
<path d="M391.958 191.772C391.958 192.091 393.044 193.207 394.285 194.324C395.681 195.441 396.612 195.6 396.612 194.643C396.612 193.846 395.526 192.729 394.285 192.091C393.044 191.612 391.958 191.453 391.958 191.772Z" fill="black"/>
<path d="M139.675 205.491C140.14 217.456 144.485 238.673 146.191 237.077C146.812 236.28 143.088 209.958 140.761 199.11C139.365 192.729 139.209 193.527 139.675 205.491Z" fill="black"/>
<path d="M179.395 194.324C179.395 195.281 180.481 195.919 181.722 195.919C182.963 195.919 184.049 195.6 184.049 195.281C184.049 194.962 182.963 194.324 181.722 193.686C180.481 193.207 179.395 193.527 179.395 194.324Z" fill="black"/>
<path d="M132.228 198.791C129.745 199.269 129.59 200.386 130.521 208.363C131.762 219.051 132.228 219.689 135.176 216.498C137.037 214.584 137.348 212.351 136.417 206.129C135.331 199.589 134.71 198.312 132.228 198.791Z" fill="black"/>
<path d="M389.94 205.97C389.009 213.467 390.406 218.253 393.509 218.253C394.285 218.253 395.215 214.903 395.836 210.596C397.233 200.227 397.233 200.227 393.819 198.95C391.181 197.834 390.716 198.631 389.94 205.97Z" fill="black"/>
<path d="M180.015 201.662C180.481 203.098 180.946 205.491 180.946 207.246C180.946 208.841 182.032 210.277 183.274 210.277C186.377 210.277 186.221 207.565 183.118 204.215C180.791 201.822 180.791 201.662 183.429 200.546C186.066 199.429 185.911 199.27 182.653 199.27C180.015 199.11 179.239 199.748 180.015 201.662Z" fill="black"/>
<path d="M137.813 231.334C134.865 234.365 135.486 238.992 139.054 238.992C142.313 238.992 143.244 235.163 140.916 231.494C139.985 229.899 139.21 229.899 137.813 231.334Z" fill="black"/>
<path d="M384.2 232.451C384.2 233.249 383.735 235.163 383.269 236.599C382.493 238.673 382.959 239.151 385.907 238.673C390.872 238.034 392.268 231.015 387.458 231.015C385.596 231.015 384.2 231.653 384.2 232.451Z" fill="black"/>
<path d="M370.701 374.111C372.097 374.43 374.269 374.43 375.356 374.111C376.287 373.632 375.2 373.313 372.563 373.313C370.08 373.313 369.149 373.632 370.701 374.111Z" fill="black"/>
<path d="M366.046 394.052C362.633 398.678 357.202 407.771 353.944 414.311C350.531 420.852 343.238 432.817 337.498 441.112C325.861 458.181 327.257 457.065 286.762 478.441C272.022 486.258 260.541 492.639 261.161 492.639C261.782 492.639 269.85 490.565 278.849 488.172C291.261 484.822 297.933 481.951 306.001 476.686C312.052 472.539 320.586 468.551 325.861 467.115C334.395 464.881 335.946 463.924 342.618 455.31C346.652 450.045 352.858 440.314 356.271 433.455C362.323 421.49 374.27 387.67 372.873 386.394C372.563 385.916 369.46 389.425 366.046 394.052Z" fill="black"/>
<path d="M380.476 404.102C377.373 408.09 374.115 410.961 373.339 410.483C372.718 410.164 371.167 410.961 370.081 412.557C368.064 414.95 368.219 415.109 370.701 413.035C374.735 409.845 373.959 411.919 368.219 420.373C365.271 424.681 361.392 430.902 359.53 434.412L355.961 440.793L362.478 433.614C370.236 425.159 389.01 396.923 386.993 396.923C386.682 396.923 383.734 400.114 380.476 404.102Z" fill="black"/>
<path d="M276.366 428.828C269.384 437.762 268.298 439.995 270.781 439.995C273.108 439.995 293.744 429.307 294.83 427.552C295.295 426.755 294.675 424.681 293.433 423.085C291.416 420.373 291.261 420.214 291.106 422.766C291.106 425.957 288.003 426.755 288.003 423.564C288.003 422.607 287.072 423.085 286.141 424.84C284.279 428.031 284.279 428.031 283.504 424.362C282.573 421.012 282.107 421.331 276.366 428.828Z" fill="black"/>
<path d="M371.477 433.136C367.288 437.921 356.117 453.555 354.1 457.543C351.928 461.691 363.564 447.653 370.236 437.921C377.218 428.031 377.683 426.435 371.477 433.136Z" fill="black"/>
<path d="M361.547 438.879C359.064 441.91 354.72 447.653 351.927 451.8C349.135 455.948 346.342 458.979 345.566 458.5C344.945 458.022 342.308 459.936 339.825 462.808L335.326 467.912L340.446 463.286C343.083 460.574 345.411 459.138 345.411 459.936C345.411 462.808 360.306 445.419 366.202 435.528C368.374 431.859 365.891 433.614 361.547 438.879Z" fill="black"/>
</svg>
