<svg width="65" height="70" viewBox="0 0 65 70" fill="none" xmlns="http://www.w3.org/2000/svg">
<path d="M25.0139 0.494923C23.8844 0.588573 22.5364 0.794607 22.0263 0.963181C20.3503 1.54382 18.8565 3.36067 18.5104 5.27116C18.4375 5.6645 18.2371 6.18895 18.055 6.43245C17.4356 7.25658 17.2898 8.75501 17.4174 12.9319C17.472 15.0859 17.5995 17.2024 17.7088 17.6145C17.8546 18.2513 17.8728 18.1951 17.7817 17.1462C17.7271 16.4719 17.7271 15.9662 17.7635 16.0224C17.8181 16.0786 18.1643 16.7529 18.565 17.5208C19.3302 19.0567 20.5507 20.1993 21.6437 20.4053C21.9534 20.4802 23.2833 20.3678 24.5585 20.1618C30.224 19.2628 33.9221 19.2628 39.0775 20.1618C41.1179 20.5177 41.2454 20.5177 41.883 20.1993C42.2473 20.0307 42.976 19.4313 43.5043 18.8881C44.1419 18.2138 44.5427 17.9329 44.7431 18.0078C44.907 18.064 45.0345 18.2138 45.0527 18.345C45.071 18.832 45.3624 17.7081 45.49 16.6218C45.5993 15.5916 45.909 14.8611 45.9636 15.4979C45.9818 15.6291 46.0911 15.0297 46.2186 14.1494C46.4737 12.37 46.3097 7.89342 45.9636 6.9569C45.6357 6.0953 45.581 6.46991 45.8725 7.59373C46.2915 9.14835 46.1276 12.9506 45.581 14.4303C44.7977 16.5468 42.7027 17.9329 40.3163 17.8767C39.4965 17.858 39.4965 17.858 40.7171 17.6145C43.1946 17.1088 44.7248 15.7227 45.3078 13.4751C45.5264 12.6322 45.581 11.6208 45.5446 9.22327C45.5264 7.48135 45.4353 6.02038 45.3624 5.98292C45.2714 5.92673 45.2167 5.64577 45.2167 5.36482C45.2167 4.44703 44.1783 2.59272 43.2675 1.88097C42.1198 0.981911 41.0085 0.682226 38.0209 0.476192C35.0333 0.270157 28.0015 0.270157 25.0139 0.494923ZM39.8973 0.8508C42.3384 1.13175 43.7047 2.087 44.4151 4.05369C44.8159 5.12132 44.907 12.5198 44.5245 13.6062C44.233 14.4678 43.14 15.6103 42.2109 16.0224C41.3547 16.4157 37.4198 16.6592 35.6527 16.4345C34.7419 16.3034 35.1062 16.2659 37.7477 16.1722C39.4965 16.0973 41.2636 15.9287 41.6644 15.7976C42.6481 15.4792 43.8504 14.243 44.1055 13.3252C44.2148 12.9132 44.2694 12.5385 44.2148 12.5011C44.069 12.3325 41.6826 13.2878 39.8062 14.243C38.7314 14.8049 37.8388 15.2357 37.8023 15.217C37.7659 15.1608 41.8648 12.37 43.2675 11.5271C43.8322 11.1712 44.3058 10.8154 44.3058 10.7404C44.3058 10.4033 40.5531 12.2389 39.1504 13.2503C38.8589 13.4563 38.6039 13.5874 38.5492 13.55C38.4764 13.4563 41.4275 11.0401 43.2128 9.74772C43.7593 9.35439 44.2512 8.99851 44.2876 8.96105C44.3241 8.92359 44.3241 8.84867 44.2512 8.79247C44.1055 8.64263 41.3911 10.1411 39.5694 11.3773L38.2031 12.2951L39.4783 11.0588C40.1888 10.3846 41.5551 9.16708 42.5388 8.38041L44.3423 6.93817L44.2512 5.62704C44.1601 4.01623 43.65 2.92987 42.6663 2.18065C41.3182 1.18794 40.7717 1.13175 31.8271 1.13175C22.9007 1.13175 22.3178 1.18794 21.0244 2.16192C20.6236 2.46161 20.1135 3.07971 19.8767 3.60416C19.4577 4.44703 19.4395 4.72798 19.3848 8.60517C19.3119 13.3065 19.4213 13.8871 20.6418 14.9548C21.662 15.8726 22.3542 16.0224 25.9976 16.1722C28.4934 16.2659 29.0399 16.3221 28.2748 16.4157C26.4348 16.6592 22.4635 16.397 21.4798 15.9662C20.5325 15.5729 19.6216 14.6176 19.2209 13.6436C18.8565 12.7446 18.729 9.39185 18.9476 6.60102C19.1116 4.55941 19.2209 4.07242 19.6581 3.24829C20.2228 2.19938 21.2794 1.35652 22.5364 1.01937C24.2306 0.532383 35.9988 0.43873 39.8973 0.8508ZM40.0613 2.81749C40.0977 2.92987 38.7496 5.42101 37.0554 8.34295L33.995 13.6811H31.8271H29.6411L26.5806 8.38041C24.7953 5.32736 23.5565 2.96733 23.6112 2.79876C23.7023 2.57399 24.8317 2.53653 31.8453 2.57399C37.3287 2.61145 40.0066 2.68637 40.0613 2.81749ZM18.1643 14.243C18.2554 14.4865 18.2554 14.5614 18.1278 14.4303C17.7271 14.0182 17.5267 12.8757 17.5267 10.8715C17.5267 7.27531 17.7817 7.1442 17.9092 10.6842C17.9821 12.4262 18.0914 14.037 18.1643 14.243ZM19.7309 16.3221C20.5507 17.2211 21.2976 17.577 22.1356 17.4646L22.9007 17.3523L22.4635 17.7269L22.0445 18.0827L23.1922 18.1015L24.3581 18.1202L23.174 18.4573L21.9899 18.7945L22.8643 18.8132C23.3379 18.832 23.7205 18.9256 23.7205 19.038C23.7205 19.1691 23.2833 19.2066 22.4453 19.1691C21.4616 19.1316 21.2247 19.1691 21.4434 19.3189C21.8806 19.6561 21.7713 19.7685 21.2247 19.5624C20.5871 19.3189 19.8402 18.5885 19.148 17.577C18.4922 16.603 18.474 16.4532 19.0933 16.9402C19.7674 17.4834 19.986 17.4272 19.567 16.8091C19.3848 16.5281 19.1662 16.191 19.0933 16.0599C18.8565 15.6665 19.2755 15.8164 19.7309 16.3221Z" fill="white"/>
<path d="M28.8766 4.0166L27.3828 4.12898L28.6944 6.47028C29.4231 7.76268 30.4251 9.42968 30.8987 10.1976L31.7731 11.5649L32.5747 10.1976C33.0119 9.42968 33.3762 8.75539 33.3762 8.66173C33.3762 8.58681 32.8662 8.53062 32.2286 8.53062C31.1538 8.53062 31.0627 8.49316 30.7712 7.96871L30.4433 7.4068H32.3561H34.2689L34.6514 6.84489L35.034 6.28298H32.3379H29.6235L29.3138 5.7398C29.1499 5.44011 29.0041 5.14043 29.0041 5.08423C29.0041 5.02804 30.5162 4.97185 32.3561 4.97185H35.708L35.9995 4.50359C36.1635 4.2601 36.291 3.99787 36.291 3.94168C36.291 3.8293 30.9169 3.88549 28.8766 4.0166Z" fill="#FF9900"/>
<path d="M16.3439 11.9205C16.2164 12.1078 16.2893 13.344 16.5443 15.498C16.6354 16.3409 16.6354 16.3783 16.1253 16.4532L15.6152 16.5282L16.1253 16.5656C16.3986 16.5656 16.6172 16.6031 16.6172 16.6218C16.9997 21.2669 18.0017 28.8715 18.3114 29.2648C18.4025 29.3959 18.6393 29.5083 18.8397 29.5083C19.1129 29.5083 19.1494 29.4334 19.0036 29.1712C18.8943 28.9651 18.8214 28.6654 18.8214 28.4594C18.8397 28.2721 18.785 27.8975 18.7121 27.6353C18.6028 27.1857 18.6028 27.1857 18.8943 27.6915C19.0583 27.9724 19.1311 28.2908 19.0765 28.3657C18.949 28.5905 19.3497 29.5083 19.5684 29.5083C19.6594 29.5083 19.6412 29.3397 19.5319 29.1524C19.0765 28.2721 19.4773 28.1035 19.9509 28.9651C20.3699 29.7143 20.5703 29.5458 20.1695 28.7778C20.0056 28.4407 19.9691 28.1972 20.0784 28.1972C20.206 28.1972 20.2242 28.0848 20.0784 27.8413C19.9873 27.6353 19.8963 27.3543 19.8963 27.2232C19.9145 26.8486 20.2242 27.4667 20.3335 28.0848C20.4246 28.5905 20.9164 29.5083 21.0804 29.5083C21.135 29.5083 21.0622 29.2648 20.8982 28.9464C20.4792 28.1035 20.5703 28.0661 21.2808 28.7778L21.9366 29.4146L21.8091 28.6654C21.7362 28.2534 21.4994 26.68 21.2808 25.1629C20.9893 23.1025 20.8071 22.3158 20.5339 22.0162C20.3335 21.7914 20.0784 21.3793 19.9509 21.1171C19.7505 20.6488 19.7505 20.6863 19.7323 21.6228C19.7141 22.8028 19.5866 22.8028 19.368 21.6228L19.204 20.7987L19.1676 21.8288C19.1311 22.8216 19.1129 22.8403 18.9854 22.1473C18.785 21.0796 18.6211 21.0984 18.6028 22.2222C18.5846 23.1212 18.5664 23.1774 18.4389 22.6155C18.2203 21.679 18.0745 21.679 18.0563 22.5968C18.0381 23.3647 18.0199 23.3835 17.8924 22.859C17.692 22.166 16.9997 15.9101 16.854 13.6062C16.7447 11.9579 16.599 11.471 16.3439 11.9205ZM19.623 27.8226C19.7141 28.141 19.6959 28.2346 19.5684 28.1035C19.4773 27.9911 19.3315 27.7102 19.2587 27.448C19.1676 27.1295 19.1858 27.0359 19.3133 27.167C19.4044 27.2607 19.5501 27.5603 19.623 27.8226ZM21.0804 27.8413C21.2443 28.1597 21.3354 28.4594 21.2808 28.5156C21.2079 28.5905 20.6249 27.5978 20.6249 27.3543C20.6249 27.1108 20.8253 27.3168 21.0804 27.8413Z" fill="white"/>
<path d="M15.3599 12.3137C15.3781 12.5385 15.4328 12.9505 15.5239 13.2128C15.6332 13.6061 15.6696 13.6248 15.7789 13.3626C15.8518 13.194 15.8882 12.8194 15.8518 12.5385C15.7789 11.9016 15.3417 11.6956 15.3599 12.3137Z" fill="white"/>
<path d="M47.0749 12.2951C46.7834 12.7633 46.8016 13.1567 47.1113 13.269C47.3846 13.3814 47.585 13.0443 47.585 12.4636C47.585 11.9579 47.3299 11.8643 47.0749 12.2951Z" fill="white"/>
<path d="M45.7815 16.4159C45.7815 16.7718 45.8361 16.9404 45.8908 16.8092C45.9272 16.6969 46.2734 16.5657 46.6377 16.5657C47.2571 16.5283 47.2571 16.5283 46.7652 16.4534C46.4737 16.4159 46.1094 16.2286 46.0001 16.06C45.7997 15.8165 45.7633 15.854 45.7815 16.4159Z" fill="white"/>
<path d="M45.6012 17.8201C45.6012 18.0266 45.6559 18.0829 45.7105 17.9328C45.7652 17.8014 45.747 17.6325 45.6923 17.5762C45.6377 17.5011 45.583 17.6137 45.6012 17.8201Z" fill="white"/>
<path d="M45.4176 18.9442C45.4176 19.1506 45.4723 19.2069 45.5269 19.0568C45.5816 18.9254 45.5634 18.7565 45.5087 18.7002C45.4541 18.6251 45.3994 18.7377 45.4176 18.9442Z" fill="white"/>
<path d="M45.234 20.0677C45.234 20.2741 45.2887 20.3305 45.3433 20.1803C45.398 20.0489 45.3798 19.88 45.3251 19.8237C45.2705 19.7486 45.2158 19.8613 45.234 20.0677Z" fill="white"/>
<path d="M19.5309 20.1435C19.367 20.2557 19.3487 20.3306 19.4763 20.3306C19.5856 20.3306 19.7495 20.237 19.8042 20.1435C19.9499 19.9189 19.877 19.9189 19.5309 20.1435Z" fill="white"/>
<path d="M29.2772 20.0871C26.3442 20.4804 21.2799 21.2858 21.207 21.3607C21.0066 21.548 22.209 21.8477 22.8101 21.7353C23.302 21.6604 23.3931 21.6791 23.1745 21.829C22.7919 22.1287 24.8869 21.9226 26.6904 21.4731C28.421 21.0423 28.257 21.3794 26.5082 21.8477C25.8159 22.035 25.4516 22.1849 25.6702 22.1849C26.326 22.2036 27.9838 21.8102 28.2753 21.548C28.7853 21.1172 30.0241 20.5553 30.7346 20.4429C31.3722 20.3305 31.3175 20.3867 30.3156 20.7801C29.6962 21.0423 28.9129 21.4544 28.585 21.7166C27.9656 22.2036 26.7815 22.4845 24.4132 22.6906L23.0287 22.8217L22.9012 24.9008C22.7373 27.4855 22.9741 28.8529 23.7392 30.0891C24.0671 30.5948 24.3586 31.0069 24.3768 31.0069C24.4132 31.0069 24.3039 30.7072 24.1582 30.3513C23.721 29.2649 23.8667 29.2087 24.559 30.1827C24.9233 30.6884 25.1601 30.9319 25.1055 30.7259C25.0508 30.5199 24.9597 30.0141 24.9051 29.6021C24.8322 29.19 24.7411 28.703 24.6865 28.5157C24.6501 28.3471 24.6865 28.1973 24.7776 28.1973C24.8687 28.1973 24.9962 28.5532 25.069 28.984C25.3787 30.9319 26.8543 33.5729 27.6377 33.5729C27.9656 33.5729 27.9838 33.4043 27.6923 33.1047C27.328 32.73 27.8198 32.8424 28.4574 33.292C28.7853 33.5355 29.1861 33.9288 29.3501 34.1723C29.6233 34.6218 29.6233 34.6218 29.2226 34.5282C28.9493 34.4532 28.8218 34.4907 28.8764 34.6218C28.9675 34.9215 29.6598 35.2586 30.6435 35.4834C31.4086 35.652 31.3722 35.6707 30.097 35.6145C29.3501 35.5771 28.5667 35.5021 28.3663 35.4085C28.0749 35.2774 28.0931 35.371 28.5121 35.8206C29.095 36.4574 29.1497 36.7196 28.6578 36.4387C28.0931 36.139 28.002 36.2139 28.4028 36.6634C28.6396 36.9444 28.8036 37.4688 28.8764 38.1244C28.9311 38.7238 29.259 39.7727 29.6233 40.6155C30.5524 42.6946 30.4249 42.8444 29.4229 40.8403C28.9675 39.9038 28.1477 38.5927 27.6194 37.8996C26.6357 36.6447 26.3625 36.139 26.9636 36.6634C27.6377 37.2628 27.747 37.2253 27.3826 36.4761C27.1822 36.0641 26.5446 35.3148 25.9617 34.8279C25.3787 34.3409 24.7594 33.7977 24.5772 33.6478C24.2857 33.4043 24.3039 33.5355 24.7047 34.472C25.1419 35.5021 25.1419 35.5583 24.7958 35.1275L24.395 34.6593L24.5407 35.1275C24.6136 35.3898 24.8687 35.9142 25.1055 36.2888C25.7066 37.2628 25.652 37.4126 24.978 36.626L24.4314 35.9704L24.7411 36.626C24.9051 36.9818 25.1783 37.4501 25.3423 37.6374C25.5791 37.9371 25.5791 37.9746 25.3605 37.8434C25.2148 37.7685 24.9233 37.5625 24.7229 37.3939C24.3768 37.0942 24.3768 37.113 24.6865 37.5999C25.069 38.218 25.0873 38.4428 24.7411 38.1431C24.4314 37.8622 24.2675 38.5927 24.2675 40.372C24.2675 41.5333 24.3221 41.7019 24.9415 42.5448L25.5973 43.4625L24.7594 42.6197C24.2857 42.1702 23.9032 41.8892 23.9032 42.0203C23.9032 42.3387 24.3768 43.2752 24.9597 44.1181C25.2877 44.6238 25.1966 44.5489 24.5225 43.8372C24.0489 43.3127 23.721 43.0505 23.7756 43.2378C23.8485 43.4438 23.9578 43.8184 24.0125 44.0807C24.1764 44.7362 23.8667 44.4553 23.5935 43.6873L23.3931 43.0879L23.1745 43.706C22.9376 44.3803 22.719 44.3241 22.5733 43.5562C22.5004 43.1629 22.5004 43.1816 22.464 43.6873C22.4458 44.5114 22.1543 44.474 21.881 43.6124L21.6624 42.9006L21.4256 43.6499L21.1888 44.3991L21.2252 43.3127C21.2434 42.7321 21.2434 42.2451 21.2434 42.2451C21.2252 42.2451 20.7334 42.5448 20.1504 42.9006C19.0392 43.5937 18.6931 43.706 18.9117 43.3127C19.0027 43.1816 18.9299 43.2003 18.7295 43.3689C18.5291 43.5187 18.4744 43.6686 18.602 43.706C18.7113 43.7435 18.8024 44.0432 18.8024 44.3616V44.961L18.4198 44.3429L18.019 43.7248L18.5655 43.0317C19.021 42.4511 19.4217 42.2263 20.952 41.6832C23.1562 40.8965 23.0287 41.1774 23.0105 36.7196C22.9923 34.1161 22.9194 33.4605 22.5004 31.7748L22.0086 29.8456L20.9884 29.9392C20.4055 30.0141 19.5128 30.0141 19.0027 29.9392C18.183 29.8456 18.019 29.7519 17.7822 29.2837C17.5272 28.7779 17.4179 28.7218 16.7803 28.7967C15.9423 28.8716 15.9969 28.984 15.6326 26.5303C15.4686 25.5563 15.3229 24.7509 15.3047 24.7322C15.1954 24.6573 0.494141 39.0047 0.494141 39.1733C0.494141 39.2857 3.28136 42.0578 6.68796 45.3356C10.0946 48.6134 17.1264 55.4313 22.3183 60.4884C27.5101 65.5456 31.8276 69.6851 31.9005 69.6851C32.0098 69.6851 42.43 59.6081 53.4149 48.8756C54.2711 48.0515 56.8762 45.5229 59.2262 43.2752L63.489 39.1733L62.0498 37.7685C61.2483 36.9818 58.1149 33.9475 55.0544 31.0256C51.994 28.1036 49.0792 25.2754 48.5509 24.7696L47.6218 23.8519L47.4215 24.9382C47.3122 25.5563 47.0753 26.6801 46.8932 27.4481L46.5835 28.8529L45.8548 28.7967C45.2172 28.7592 45.0897 28.8154 44.8346 29.2837C44.5796 29.7332 44.3974 29.8456 43.5776 29.9392C43.0494 30.0141 42.1567 30.0141 41.592 29.958L40.5718 29.8456L40.1164 31.5875C39.7521 33.0297 39.661 33.8913 39.6063 36.345C39.5699 38.1057 39.6245 39.7352 39.7521 40.2971C39.9342 41.2149 39.9889 41.2711 40.6447 41.3835C41.0272 41.4397 41.5555 41.6644 41.8106 41.8892C42.0838 42.0952 42.3753 42.2263 42.4664 42.1702C42.6668 42.039 44.8528 42.7883 46.037 43.4064C46.547 43.6686 48.4052 44.3241 50.1722 44.8673L53.3967 45.8413L54.9451 44.3803L56.4936 42.9006L55.692 41.3835C55.2366 40.5406 54.8723 39.7914 54.8723 39.7165C54.8723 39.6603 55.4916 40.1098 56.2386 40.7466L57.5866 41.9079L58.1696 41.4771L58.7525 41.0463L57.8052 40.1473C56.6758 39.0796 56.7851 38.986 58.1149 39.9038L59.0804 40.5781L59.9002 39.8663L60.7382 39.1733L57.6777 36.1764C54.3622 32.9548 48.7149 27.2046 49.316 27.6541C50.9556 28.9465 58.1149 35.6707 60.5742 38.2742L61.649 39.3793L58.2424 42.8819C53.2692 47.9766 35.8718 64.5904 34.8881 65.171C34.7423 65.246 36.8191 63.1107 39.5152 60.3948C46.4377 53.4271 48.3505 51.423 50.318 49.0817L52.0486 47.0213L50.5912 48.3324C48.4416 50.2429 48.1501 50.4677 48.8788 49.6436C50.5002 47.7893 50.154 47.7893 48.3688 49.6436C46.292 51.8163 45.0715 52.9027 46.5106 51.3106C47.6401 50.0744 48.223 49.2315 48.5691 48.3324L48.8606 47.5832L48.2959 48.2388C47.9862 48.5947 46.7839 50.0931 45.6362 51.5541C44.4885 53.0338 43.5048 54.2325 43.4501 54.2325C43.3955 54.2325 43.6505 53.8392 44.0149 53.3335C44.8893 52.1722 46.3102 50.0369 46.9296 48.988L47.4215 48.1451L46.3831 49.269C45.8184 49.8871 44.8893 51.0296 44.3428 51.7976C42.9583 53.6893 42.1385 54.6071 41.8106 54.6071C41.5738 54.6071 41.5738 54.6633 41.7559 54.8881C41.9381 55.1128 41.9017 55.1878 41.5555 55.3376C41.3187 55.4125 41.009 55.45 40.8997 55.4125C40.7722 55.3563 40.6629 55.4125 40.6629 55.5249C40.6629 55.6373 40.7904 55.7309 40.9362 55.7309C41.173 55.7309 41.1912 55.8059 41.0272 56.1055C40.8815 56.3865 40.6447 56.4802 40.0617 56.4989C39.4059 56.4989 39.3513 56.5363 39.7156 56.6862C40.3532 56.9484 40.0253 57.2294 39.0598 57.2481C38.2218 57.2668 38.2218 57.2668 38.8048 57.4354C39.4424 57.6227 39.5334 57.81 39.1145 58.1659C38.9505 58.3157 38.5133 58.3532 37.8939 58.2783C36.9648 58.1846 36.9648 58.1846 37.6206 58.3719C38.7137 58.6903 38.3311 59.0088 36.9102 58.99C35.6896 58.9713 35.6714 58.9713 36.4365 59.1586C37.985 59.5332 36.983 60.0202 35.3617 59.6643L34.3051 59.4208L33.6129 60.0389C32.9206 60.6758 32.6474 60.5634 33.0299 59.8142L33.2485 59.3834L32.7567 59.8329C32.1191 60.451 31.9551 60.2075 32.4834 59.4395C32.8842 58.8589 32.8478 58.8589 32.0462 59.6081C31.5726 60.0577 31.0807 60.4135 30.9532 60.4135C30.3884 60.4135 24.5043 57.6602 24.6865 57.4916C24.7411 57.4354 25.5973 57.7164 26.5811 58.1284C28.3846 58.8776 30.2974 59.5332 30.4067 59.4208C30.4249 59.3834 30.2609 59.1586 30.0059 58.9151C29.7508 58.6716 29.5505 58.4094 29.5505 58.3345C29.5505 58.2595 30.9714 57.4729 32.702 56.5925C38.1854 53.8017 38.3493 53.6706 39.8067 51.5166C41.5555 48.8944 41.592 48.7632 40.2803 49.9807C38.1854 51.9287 36.0175 53.1649 34.2505 53.3896L33.4671 53.4833L34.378 53.1461C38.4404 51.5728 41.6648 48.3699 42.3207 45.2419C42.5757 44.0057 42.3207 43.2191 41.3734 42.3575C40.4443 41.4959 40.1346 41.4771 40.9726 42.3387C41.6102 42.9943 41.6284 43.0317 41.5191 44.1743C41.2094 48.0515 37.7664 51.7226 33.4125 52.8465C31.5179 53.3335 29.1132 52.7528 26.5993 51.2169C25.3059 50.4302 23.1198 48.4636 22.7737 47.7893C22.6644 47.5645 23.0287 47.8267 23.557 48.3699C24.1035 48.8944 24.9962 49.6248 25.5609 49.9807C26.6904 50.7112 28.7307 51.4979 29.1132 51.348C29.2954 51.2731 28.9857 50.6363 28.0202 49.1378C27.2733 47.9766 26.7086 46.9839 26.7632 46.9277C26.7997 46.8902 27.1458 47.2274 27.5466 47.6769L28.257 48.5197L28.0749 47.808C27.9656 47.4147 27.9109 46.7404 27.9474 46.3096L28.002 45.5229L28.3663 46.1972C28.7853 46.9651 31.4086 50.4677 31.5726 50.4864C31.6454 50.4864 32.2102 49.9994 32.8478 49.3813L34.0137 48.2763L32.7202 48.3699C31.9369 48.4261 31.2811 48.3886 31.0807 48.2763C30.7892 48.1077 30.9167 48.0515 31.7365 48.0328C32.5745 48.014 32.6474 47.9766 32.1919 47.8642C31.6819 47.7331 31.6636 47.7143 32.1009 47.6769C32.5199 47.6581 32.5199 47.6207 31.9187 47.3585L31.2811 47.0588L31.9187 46.8153C32.2648 46.6842 32.4105 46.5718 32.2466 46.5718C31.9005 46.5531 29.4776 44.5114 29.6233 44.3429C29.678 44.3054 29.8237 44.3241 29.9512 44.4365C30.0788 44.5302 30.4249 44.7175 30.7164 44.8299L31.2447 45.0734L30.935 44.5864C30.5888 44.0432 30.7346 43.987 31.354 44.4178C31.7729 44.7175 31.7729 44.7175 31.5543 44.3054C31.354 43.9121 31.3722 43.8933 31.7365 43.987C32.1191 44.0807 32.1191 44.0807 31.8094 43.7248C31.4997 43.3876 31.5179 43.3689 32.1191 43.3502C32.4652 43.3314 32.5927 43.294 32.4288 43.2378C31.9369 43.1067 32.0462 42.807 32.5745 42.807H33.0664L32.5745 42.4136C32.3195 42.2076 32.1009 41.9454 32.1009 41.8517C32.1009 41.7581 31.8094 41.2336 31.4633 40.6905C31.1171 40.166 30.8257 39.6416 30.8257 39.5292C30.8257 39.2482 34.2323 36.9257 35.1978 36.551C35.7989 36.3263 36.4001 35.8018 37.4385 34.6593C38.2218 33.7789 38.823 33.0672 38.7865 33.0672C38.7501 33.0672 38.1672 33.3107 37.5113 33.6291C36.3637 34.1723 35.1067 34.4345 35.7443 34.0037C35.9447 33.8726 35.8536 33.8164 35.3799 33.8164C34.2687 33.8164 33.3032 33.4418 32.7931 32.8424C32.5199 32.5053 32.2648 32.2805 32.2284 32.3367C32.1919 32.3742 31.9733 32.6926 31.7365 33.0485C31.3904 33.5729 31.2993 33.6291 31.1536 33.3669C31.0625 33.1983 31.0443 32.9735 31.0989 32.8799C31.2082 32.6926 30.7528 32.7488 29.9877 32.9735C29.8784 33.011 29.5687 32.8237 29.3136 32.5802C29.0586 32.3367 28.7489 32.1307 28.6396 32.1307C28.5121 32.1307 28.4574 31.8497 28.4939 31.4189C28.5485 30.7259 28.5485 30.7259 29.7873 30.4075C30.4795 30.2389 31.1718 29.9767 31.354 29.8081C31.5361 29.6395 31.9916 29.4522 32.3559 29.3773C32.702 29.3211 32.9571 29.2087 32.9024 29.1151C32.8478 29.0214 32.9935 28.9465 33.2303 28.9278C33.4671 28.9278 33.54 28.8716 33.4125 28.8154C33.3032 28.7779 33.2303 28.6656 33.285 28.5719C33.3214 28.497 32.3923 28.3659 31.2082 28.291C29.2043 28.1786 28.9857 28.1973 28.2753 28.5719C27.6377 28.9091 27.4737 28.9278 27.3462 28.7218C27.164 28.4408 27.164 28.2348 27.3462 27.7478C27.4373 27.4855 27.5284 27.4481 27.6194 27.5979C27.8198 27.9538 28.5121 27.8602 29.6233 27.3544C30.9167 26.7738 32.6656 26.7176 34.2687 27.2421C35.4528 27.6167 35.635 27.5417 34.9792 26.9611C34.2505 26.3055 33.8497 26.0246 33.9954 26.2681C34.1594 26.5865 33.9408 26.5678 33.3761 26.2493C33.0664 26.062 32.7931 26.0433 32.5016 26.1557C32.0098 26.343 31.3722 26.2119 31.3722 25.9309C31.3722 25.8373 31.4815 25.7624 31.609 25.7436C31.7183 25.7436 31.6272 25.65 31.3904 25.5563C31.026 25.4065 30.771 25.4814 29.8966 26.0433C28.7307 26.7738 28.4574 26.8487 28.4574 26.3617C28.4756 26.1932 28.9857 25.65 29.6233 25.1443C30.4795 24.4887 30.935 24.2639 31.4086 24.2639C31.7547 24.2639 32.283 24.1328 32.5927 23.983C33.0664 23.7395 33.2485 23.7395 34.123 23.983C34.6695 24.1328 35.4528 24.3576 35.89 24.47C37.0377 24.7884 40.3897 24.189 40.9544 23.5709C41.4098 23.0652 41.7559 23.009 41.6466 23.4585C41.592 23.6458 41.3734 25.0319 41.1548 26.549C40.6993 29.5272 40.6993 29.5084 41.6831 29.5084C42.011 29.5084 42.1385 29.3773 42.2114 28.984C42.266 28.703 42.3935 28.216 42.4846 27.9163C42.6304 27.4668 42.6486 27.5792 42.5757 28.4595C42.4846 29.7519 42.6121 29.7145 42.9583 28.3471L43.1951 27.3544L43.1404 28.4783C43.0676 29.5459 43.0858 29.5833 43.3226 29.0402C43.4501 28.7218 43.5594 28.3846 43.5776 28.2535C43.5776 28.1411 43.6687 27.9725 43.7963 27.8976C43.942 27.804 43.9602 27.8976 43.8691 28.216C43.523 29.5272 43.523 29.5084 43.9238 29.5084C44.3428 29.5084 44.3792 29.3586 44.3246 27.9913C44.2881 27.523 44.4521 26.1557 44.6707 24.9382C44.8893 23.7207 45.0168 22.5595 44.9804 22.3347C44.9257 22.0537 44.8893 22.1099 44.8711 22.522C44.8711 22.8591 44.7982 23.1401 44.7071 23.1401C44.6342 23.1401 44.5978 22.7468 44.616 22.241C44.6707 21.2296 44.5614 21.3607 44.3246 22.5969L44.1606 23.4211L44.1242 22.2972C44.0877 21.6791 44.0331 21.3607 43.9966 21.5855C43.8873 22.2036 43.6141 22.1099 43.5412 21.4169C43.4683 20.5553 43.104 20.574 42.6668 21.4544C42.0838 22.6344 41.7377 22.728 39.1873 22.241C37.985 22.0163 36.7462 21.7166 36.4183 21.5855C35.89 21.3607 36.0358 21.3233 37.9303 21.342C39.078 21.3607 40.2803 21.2858 40.5718 21.1921C41.5373 20.8925 35.0885 19.9747 32.1919 19.9934C30.8985 20.0121 29.5869 20.0496 29.2772 20.0871ZM34.7606 20.9861C35.6532 21.6791 36.3272 21.9226 38.3858 22.2972C41.009 22.7655 40.9179 22.9715 38.2582 22.5595C36.2544 22.241 35.9082 22.1287 35.052 21.5106C34.5237 21.136 33.6311 20.7239 33.0481 20.5928L32.0098 20.3305L33.0664 20.4242C33.8497 20.4804 34.2869 20.6302 34.7606 20.9861ZM43.1587 22.6157L43.0676 23.983L43.3226 23.1401L43.5776 22.2972L43.4866 23.2338C43.4319 24.0392 43.4501 24.0954 43.6141 23.702C43.778 23.3087 43.8327 23.2899 43.8873 23.5709C43.9602 23.8893 43.9966 23.8893 44.2881 23.6084C44.5978 23.3274 44.616 23.3649 44.5796 24.0204C44.5249 24.9382 44.1059 27.1297 43.9602 27.2982C43.7598 27.523 43.0311 27.2421 43.0311 26.9236C43.0311 26.6801 42.9765 26.6989 42.7397 26.9986C42.4664 27.3544 42.4664 27.3544 42.5575 26.9798C42.6121 26.7738 42.685 26.2681 42.7397 25.856C42.7943 25.4439 42.6668 25.7998 42.4482 26.6427C42.2296 27.5043 41.9928 28.1973 41.9199 28.1973C41.6831 28.1973 41.6466 25.369 41.8652 24.3201C42.0474 23.4211 42.9765 21.2671 43.1769 21.2671C43.2315 21.2671 43.2133 21.8852 43.1587 22.6157ZM14.4302 27.804C14.4302 27.8976 11.8798 30.4824 8.76472 33.5355L3.11741 39.1171L3.82787 39.8663L4.55656 40.6155L5.26703 40.1847C6.74262 39.2482 6.8337 39.2295 5.95928 40.0536L5.04842 40.9152L5.48563 41.3835C5.74067 41.6457 6.01393 41.8705 6.12323 41.8705C6.23254 41.8517 6.88835 41.3647 7.59882 40.7466C8.29107 40.1473 8.89224 39.6603 8.91045 39.6977C8.92867 39.7165 8.58255 40.447 8.14533 41.3273L7.34378 42.9194L8.78293 44.3991L10.2221 45.8788L13.5558 44.7737C15.3958 44.1743 17.0535 43.5749 17.2539 43.4438C17.9097 42.9756 18.2012 43.1441 17.6182 43.6499C16.8531 44.3241 15.9423 44.7175 13.319 45.5229C12.0802 45.9162 10.9872 46.2908 10.8961 46.3845C10.7868 46.4781 14.4485 50.3741 19.8954 55.9557C24.9597 61.144 28.84 65.1523 28.5485 64.8901C24.7958 61.5373 9.85774 47.2835 6.50579 43.8746L2.13368 39.4355L5.41277 36.1202C8.05425 33.4418 14.1934 27.6541 14.3938 27.6354C14.412 27.6354 14.4302 27.7103 14.4302 27.804ZM13.8655 31.138C12.1895 33.217 10.9508 34.472 9.12906 35.9891C7.92673 36.9818 6.90657 37.7685 6.87014 37.7123C6.7244 37.5625 13.7562 30.8383 14.0477 30.8196C14.0841 30.8196 14.0112 30.9694 13.8655 31.138ZM54.8358 35.5583C55.9471 36.6822 56.8762 37.6561 56.8762 37.6936C56.8762 37.806 54.854 36.1764 53.3238 34.8653C52.2854 33.9663 49.7715 31.1567 49.7715 30.9132C49.7715 30.7072 52.6316 33.3482 54.8358 35.5583ZM15.25 35.2586C14.9403 36.5698 13.4647 38.5177 11.8798 39.7165C10.6229 40.6717 10.5682 40.5219 11.7341 39.2857C12.9182 38.0682 13.4465 37.1879 13.1186 36.9818C12.9182 36.8507 14.8857 34.7529 15.2136 34.7529C15.3047 34.7529 15.3229 34.9777 15.25 35.2586ZM49.7533 35.7644C50.2816 36.3263 50.6641 36.8695 50.6095 36.9818C50.4091 37.3003 50.8281 37.9371 52.0122 39.192C53.2692 40.5219 53.2509 40.6905 51.9575 39.7165C50.2451 38.4241 48.4963 36.0453 48.4963 35.0339C48.4963 34.5656 48.7331 34.6967 49.7533 35.7644ZM15.6144 36.2139L15.1043 36.7196L15.5233 36.1015C15.7419 35.7644 15.9787 35.5209 16.0334 35.5958C16.088 35.652 15.9058 35.9329 15.6144 36.2139ZM48.223 36.0079L48.5509 36.5323L48.1684 36.1764C47.9498 35.9704 47.7676 35.7456 47.7676 35.652C47.7676 35.3898 47.8951 35.4834 48.223 36.0079ZM12.6996 39.9974C12.4081 40.2971 12.0802 40.5593 11.9891 40.5593C11.807 40.5406 12.9547 39.4543 13.1368 39.4355C13.1915 39.4355 12.9911 39.679 12.6996 39.9974ZM51.8847 40.5032C51.7754 40.6155 50.6823 39.7727 50.6823 39.5854C50.6823 39.4917 50.9738 39.6416 51.3199 39.9225C51.6843 40.2035 51.9393 40.4657 51.8847 40.5032ZM20.3508 44.268C20.2051 44.4178 19.8772 43.5375 20.0047 43.3314C20.0958 43.1816 20.2051 43.3127 20.2962 43.6499C20.369 43.9495 20.4055 44.2305 20.3508 44.268ZM18.1465 44.3429C18.2012 44.5864 18.2558 44.9422 18.2558 45.1483C18.2376 45.5042 18.2376 45.5042 18.0008 45.1857C17.764 44.8861 17.7458 44.8861 17.6365 45.2794C17.5818 45.5229 17.5272 45.935 17.5272 46.1972C17.5272 46.6654 17.4907 46.6842 16.2155 46.7966C15.4868 46.8527 14.8128 46.8153 14.7217 46.7216C14.6124 46.628 14.7217 46.5531 15.0132 46.5531C15.414 46.5531 15.4686 46.4781 15.3775 46.141C15.3229 45.8788 15.3411 45.7851 15.4868 45.8788C15.6144 45.9537 15.7054 46.141 15.7054 46.2721C15.7054 46.4407 15.8147 46.4969 15.9787 46.4407C16.1609 46.3658 16.2155 46.1785 16.1427 45.8788C16.0151 45.3356 16.3613 45.2607 16.5252 45.8038C16.6163 46.1223 16.7438 45.9724 17.1992 45.0546C17.7822 43.8372 17.9644 43.706 18.1465 44.3429ZM23.8303 49.756C24.4132 50.3179 25.6156 51.2918 26.5082 51.8912C28.3117 53.1274 28.5121 53.502 26.7815 52.4344C24.5407 51.0671 23.138 49.7934 22.1907 48.3512C21.5531 47.3585 21.5896 47.0588 22.2454 47.9766C22.5186 48.3699 23.2473 49.1753 23.8303 49.756ZM19.9683 48.5572C20.4601 49.0629 20.8062 49.3252 20.7334 49.1753C20.5876 48.8756 20.8973 49.2128 25.2694 54.0452C27.6377 56.6487 28.7671 58.1659 28.3481 58.1659C28.1113 58.1659 26.9818 57.3792 26.7632 57.0421C26.6357 56.8548 25.8159 56.2554 24.9597 55.6935C22.9376 54.4198 21.3528 53.0338 21.3345 52.4906C21.3163 52.1534 21.2981 52.1347 21.2252 52.4157C21.0977 52.9027 20.5694 52.7341 20.4237 52.1722C20.3508 51.9099 20.2962 51.8163 20.2779 51.9287C20.2415 52.4531 19.8954 52.1347 19.8954 51.5541C19.8772 51.0671 19.8589 51.0109 19.695 51.2731C19.4035 51.8163 19.2396 51.6664 19.3124 50.8985L19.3671 50.2055L18.9481 50.861L18.5291 51.5166L18.4744 51.0109C18.438 50.7299 18.5109 50.3366 18.602 50.1306C18.9663 49.4375 18.8024 49.3252 18.1648 49.8121C17.4907 50.3553 17.3632 50.2055 17.7093 49.2877C17.9279 48.6509 17.6547 48.6696 17.181 49.3064C16.9624 49.5686 16.762 49.756 16.7074 49.7185C16.5616 49.5499 17.0535 48.2013 17.2903 48.1077C17.4179 48.0515 18.2923 48.6696 19.2213 49.475C21.7171 51.6477 21.7353 51.6477 20.114 49.8496C18.6931 48.2575 18.3469 47.6769 18.8388 47.6769C18.9663 47.6769 19.4582 48.0702 19.9683 48.5572ZM29.9148 54.5135C31.8458 54.9443 31.9916 54.9443 34.6513 54.3074C35.5803 54.1014 34.7241 54.5884 32.866 55.3376C31.0443 56.0868 30.9532 56.1055 29.8602 55.9182C29.2408 55.8246 28.6578 55.7309 28.585 55.7309C28.4939 55.7309 28.4939 55.6373 28.5485 55.5436C28.6032 55.4313 28.9311 55.3376 29.2408 55.3376C29.7144 55.3189 29.6598 55.2814 28.8764 55.0941C28.0749 54.9255 27.838 54.757 27.3826 54.1014C26.6539 53.0712 26.6722 52.9776 27.4555 53.5769C27.8745 53.9141 28.676 54.2138 29.9148 54.5135Z" fill="white"/>
<path d="M42.8867 24.6383C42.8867 24.9005 42.9232 24.9941 42.9778 24.863C43.0142 24.7507 43.0142 24.5259 42.9778 24.3948C42.9232 24.2824 42.8867 24.376 42.8867 24.6383Z" fill="white"/>
<path d="M43.1213 20.1431C43.176 20.2554 43.4674 20.4615 43.7589 20.6113C44.2143 20.8548 44.2872 20.8548 44.3783 20.6113C44.4329 20.4615 44.3965 20.3304 44.2872 20.3304C44.1779 20.3304 44.1597 20.2367 44.2143 20.1431C44.2872 20.0307 44.0686 19.9558 43.6678 19.9558C43.267 19.9558 43.0484 20.0307 43.1213 20.1431Z" fill="white"/>
<path d="M45.0524 21.1917C45.0524 21.3982 45.1071 21.4545 45.1617 21.3043C45.2164 21.173 45.1981 21.004 45.1435 20.9477C45.0888 20.8727 45.0342 20.9853 45.0524 21.1917Z" fill="white"/>
<path d="M15.8872 22.9519C15.7414 23.0458 15.6686 23.1772 15.7232 23.2335C15.7961 23.2898 15.9418 23.2147 16.0693 23.0458C16.3244 22.7267 16.2697 22.6892 15.8872 22.9519Z" fill="white"/>
<path d="M45.4172 25.2943C45.1803 26.7178 44.9617 28.0289 44.9253 28.1975C44.8889 28.3473 44.9617 28.2162 45.1075 27.9166C45.5447 26.98 45.9637 24.7698 45.909 23.6835C45.8544 22.7844 45.8179 22.9343 45.4172 25.2943Z" fill="white"/>
<path d="M46.4922 22.8397C46.4922 22.8772 46.6197 23.0086 46.7654 23.14C46.9294 23.2714 47.0387 23.2901 47.0387 23.1775C47.0387 23.0837 46.9112 22.9523 46.7654 22.8772C46.6197 22.8209 46.4922 22.8022 46.4922 22.8397Z" fill="white"/>
<path d="M16.8714 24.4513C16.9261 25.8561 17.4362 28.3472 17.6366 28.1599C17.7094 28.0663 17.2722 24.9758 16.999 23.7021C16.835 22.9529 16.8168 23.0465 16.8714 24.4513Z" fill="white"/>
<path d="M21.5352 23.14C21.5352 23.2523 21.6627 23.3271 21.8084 23.3271C21.9542 23.3271 22.0817 23.2897 22.0817 23.2523C22.0817 23.2149 21.9542 23.14 21.8084 23.0652C21.6627 23.0091 21.5352 23.0465 21.5352 23.14Z" fill="white"/>
<path d="M15.9964 23.6646C15.705 23.7208 15.6867 23.8519 15.7961 24.7884C15.9418 26.0433 15.9964 26.1183 16.3426 25.7437C16.5612 25.5189 16.5976 25.2567 16.4883 24.5262C16.3608 23.7582 16.2879 23.6084 15.9964 23.6646Z" fill="white"/>
<path d="M46.2561 24.5075C46.1468 25.3878 46.3107 25.9497 46.675 25.9497C46.7661 25.9497 46.8754 25.5564 46.9483 25.0506C47.1123 23.8332 47.1123 23.8332 46.7115 23.6833C46.4018 23.5522 46.3471 23.6459 46.2561 24.5075Z" fill="white"/>
<path d="M21.6078 24.0017C21.6625 24.1703 21.7171 24.4513 21.7171 24.6573C21.7171 24.8446 21.8446 25.0132 21.9904 25.0132C22.3547 25.0132 22.3365 24.6948 21.9722 24.3014C21.6989 24.0205 21.6989 24.0017 22.0086 23.8706C22.3183 23.7395 22.3001 23.7208 21.9175 23.7208C21.6078 23.7021 21.5167 23.777 21.6078 24.0017Z" fill="white"/>
<path d="M16.6535 27.4857C16.3073 27.8416 16.3802 28.3848 16.7992 28.3848C17.1818 28.3848 17.2911 27.9352 17.0178 27.5044C16.9085 27.3171 16.8174 27.3171 16.6535 27.4857Z" fill="white"/>
<path d="M45.5819 27.6167C45.5819 27.7103 45.5273 27.9351 45.4726 28.1037C45.3816 28.3472 45.4362 28.4034 45.7823 28.3472C46.3653 28.2722 46.5292 27.4481 45.9645 27.4481C45.7459 27.4481 45.5819 27.523 45.5819 27.6167Z" fill="white"/>
<path d="M43.9953 44.2492C44.1593 44.2867 44.4143 44.2867 44.5418 44.2492C44.6511 44.1929 44.5236 44.1554 44.2139 44.1554C43.9224 44.1554 43.8131 44.1929 43.9953 44.2492Z" fill="white"/>
<path d="M43.4504 46.5906C43.0496 47.1338 42.412 48.2015 42.0295 48.9694C41.6287 49.7374 40.7725 51.1421 40.0985 52.1161C38.7322 54.1203 38.8961 53.9891 34.1415 56.499C32.4108 57.4168 31.0628 58.166 31.1356 58.166C31.2085 58.166 32.1558 57.9225 33.2124 57.6416C34.6698 57.2482 35.4531 56.9111 36.4004 56.293C37.1109 55.806 38.1128 55.3377 38.7322 55.1692C39.7341 54.9069 39.9163 54.7945 40.6996 53.7831C41.1733 53.165 41.902 52.0225 42.3027 51.217C43.0132 49.8123 44.4159 45.8414 44.252 45.6916C44.2155 45.6354 43.8512 46.0475 43.4504 46.5906Z" fill="white"/>
<path d="M45.1439 47.7706C44.7796 48.2389 44.397 48.576 44.3059 48.5198C44.2331 48.4824 44.0509 48.576 43.9234 48.7633C43.6866 49.0443 43.7048 49.063 43.9963 48.8195C44.4699 48.4449 44.3788 48.6884 43.7048 49.6811C43.3587 50.1868 42.9032 50.9173 42.6846 51.3294L42.2656 52.0786L43.0307 51.2357C43.9416 50.243 46.1459 46.9278 45.9091 46.9278C45.8726 46.9278 45.5265 47.3024 45.1439 47.7706Z" fill="white"/>
<path d="M32.921 50.6737C32.1013 51.7226 31.9738 51.9849 32.2652 51.9849C32.5385 51.9849 34.9614 50.7299 35.0889 50.5239C35.1435 50.4302 35.0707 50.1867 34.9249 49.9994C34.6881 49.681 34.6699 49.6623 34.6517 49.962C34.6517 50.3366 34.2873 50.4302 34.2873 50.0556C34.2873 49.9433 34.178 49.9994 34.0687 50.2055C33.8501 50.5801 33.8501 50.5801 33.759 50.1493C33.6497 49.7559 33.5951 49.7934 32.921 50.6737Z" fill="white"/>
<path d="M44.0872 51.1794C43.5953 51.7413 42.2837 53.5769 42.0469 54.0451C41.7918 54.5321 43.1581 52.8838 43.9415 51.7413C44.7612 50.58 44.8159 50.3927 44.0872 51.1794Z" fill="white"/>
<path d="M42.9224 51.8538C42.631 52.2096 42.1209 52.8839 41.793 53.3709C41.4651 53.8579 41.1372 54.2138 41.0461 54.1576C40.9732 54.1014 40.6635 54.3262 40.372 54.6633L39.8438 55.2627L40.4449 54.7195C40.7546 54.4011 41.0279 54.2325 41.0279 54.3262C41.0279 54.6633 42.7767 52.6217 43.469 51.4604C43.724 51.0296 43.4325 51.2357 42.9224 51.8538Z" fill="white"/>
</svg>
